<svg width="75" height="70" viewBox="0 0 75 70" fill="none" xmlns="http://www.w3.org/2000/svg">
<mask id="path-1-outside-1_113_48" maskUnits="userSpaceOnUse" x="-0.807861" y="-0.176025" width="75" height="70" fill="black">
<rect fill="white" x="-0.807861" y="-0.176025" width="75" height="70"/>
<path d="M4.93301 65.824L17.989 3.99997H45.637C50.437 3.99997 54.661 4.79997 58.309 6.39997C62.021 7.99997 64.901 10.464 66.949 13.792C68.997 17.12 70.021 21.344 70.021 26.464C70.021 27.808 69.925 29.216 69.733 30.688C69.605 32.16 69.381 33.696 69.061 35.296C67.653 42.4 65.477 48.192 62.533 52.672C59.589 57.152 55.717 60.48 50.917 62.656C46.181 64.768 40.293 65.824 33.253 65.824H4.93301ZM25.861 52H33.157C36.165 52 38.789 51.584 41.029 50.752C43.269 49.856 45.189 48.224 46.789 45.856C48.389 43.424 49.669 39.904 50.629 35.296C50.949 33.632 51.205 32.096 51.397 30.688C51.589 29.28 51.685 28 51.685 26.848C51.685 23.392 50.789 21.024 48.997 19.744C47.205 18.464 44.357 17.824 40.453 17.824H33.157L25.861 52Z"/>
</mask>
<path d="M4.93301 65.824L17.989 3.99997H45.637C50.437 3.99997 54.661 4.79997 58.309 6.39997C62.021 7.99997 64.901 10.464 66.949 13.792C68.997 17.12 70.021 21.344 70.021 26.464C70.021 27.808 69.925 29.216 69.733 30.688C69.605 32.16 69.381 33.696 69.061 35.296C67.653 42.4 65.477 48.192 62.533 52.672C59.589 57.152 55.717 60.48 50.917 62.656C46.181 64.768 40.293 65.824 33.253 65.824H4.93301ZM25.861 52H33.157C36.165 52 38.789 51.584 41.029 50.752C43.269 49.856 45.189 48.224 46.789 45.856C48.389 43.424 49.669 39.904 50.629 35.296C50.949 33.632 51.205 32.096 51.397 30.688C51.589 29.28 51.685 28 51.685 26.848C51.685 23.392 50.789 21.024 48.997 19.744C47.205 18.464 44.357 17.824 40.453 17.824H33.157L25.861 52Z" fill="url(#paint0_linear_113_48)"/>
<path d="M4.93301 65.824L1.01933 64.9975L7.20024e-05 69.824H4.93301V65.824ZM17.989 3.99997V-3.05176e-05H14.7455L14.0753 3.17348L17.989 3.99997ZM58.309 6.39997L56.7024 10.0631L56.714 10.0682L56.7257 10.0733L58.309 6.39997ZM66.949 13.792L70.3557 11.6956V11.6956L66.949 13.792ZM69.733 30.688L65.7666 30.1706L65.7555 30.2558L65.7481 30.3415L69.733 30.688ZM69.061 35.296L65.1387 34.5115L65.1373 34.5183L69.061 35.296ZM50.917 62.656L52.5462 66.3092L52.5574 66.3042L52.5686 66.2991L50.917 62.656ZM25.861 52L21.9492 51.1649L20.9169 56H25.861V52ZM41.029 50.752L42.4218 54.5017L42.4684 54.4844L42.5146 54.4659L41.029 50.752ZM46.789 45.856L50.1034 48.0954L50.1172 48.075L50.1307 48.0544L46.789 45.856ZM50.629 35.296L54.5449 36.1118L54.5512 36.0816L54.557 36.0514L50.629 35.296ZM51.397 30.688L47.4337 30.1475V30.1475L51.397 30.688ZM48.997 19.744L51.322 16.489V16.489L48.997 19.744ZM33.157 17.824V13.824H29.9208L29.2452 16.9889L33.157 17.824ZM4.93301 65.824L8.8467 66.6505L21.9027 4.82646L17.989 3.99997L14.0753 3.17348L1.01933 64.9975L4.93301 65.824ZM17.989 3.99997V7.99997H45.637V3.99997V-3.05176e-05H17.989V3.99997ZM45.637 3.99997V7.99997C49.9951 7.99997 53.6536 8.72594 56.7024 10.0631L58.309 6.39997L59.9157 2.73682C55.6684 0.874001 50.879 -3.05176e-05 45.637 -3.05176e-05V3.99997ZM58.309 6.39997L56.7257 10.0733C59.7099 11.3596 61.9411 13.2862 63.5424 15.8884L66.949 13.792L70.3557 11.6956C67.861 7.6417 64.3321 4.64037 59.8923 2.72668L58.309 6.39997ZM66.949 13.792L63.5424 15.8884C65.0995 18.4187 66.021 21.8596 66.021 26.464H70.021H74.021C74.021 20.8284 72.8945 15.8213 70.3557 11.6956L66.949 13.792ZM70.021 26.464H66.021C66.021 27.6182 65.9385 28.8526 65.7666 30.1706L69.733 30.688L73.6994 31.2053C73.9115 29.5793 74.021 27.9978 74.021 26.464H70.021ZM69.733 30.688L65.7481 30.3415C65.6341 31.6522 65.4327 33.0415 65.1387 34.5115L69.061 35.296L72.9833 36.0804C73.3293 34.3505 73.576 32.6678 73.718 31.0345L69.733 30.688ZM69.061 35.296L65.1373 34.5183C63.7966 41.2832 61.7704 46.5489 59.1902 50.4753L62.533 52.672L65.8758 54.8687C69.1836 49.8351 71.5095 43.5168 72.9847 36.0736L69.061 35.296ZM62.533 52.672L59.1902 50.4753C56.6542 54.3343 53.3638 57.1549 49.2655 59.0128L50.917 62.656L52.5686 66.2991C58.0702 63.805 62.5238 59.9696 65.8758 54.8687L62.533 52.672ZM50.917 62.656L49.2879 59.0028C45.2131 60.8199 39.921 61.824 33.253 61.824V65.824V69.824C40.6651 69.824 47.1489 68.716 52.5462 66.3092L50.917 62.656ZM33.253 65.824V61.824H4.93301V65.824V69.824H33.253V65.824ZM25.861 52V56H33.157V52V48H25.861V52ZM33.157 52V56C36.5225 56 39.6375 55.5358 42.4218 54.5017L41.029 50.752L39.6363 47.0023C37.9405 47.6321 35.8075 48 33.157 48V52ZM41.029 50.752L42.5146 54.4659C45.6267 53.221 48.1396 51.0018 50.1034 48.0954L46.789 45.856L43.4747 43.6165C42.2385 45.4461 40.9113 46.4909 39.5435 47.0381L41.029 50.752ZM46.789 45.856L50.1307 48.0544C52.1255 45.0223 53.5378 40.9462 54.5449 36.1118L50.629 35.296L46.7131 34.4802C45.8003 38.8618 44.6525 41.8257 43.4473 43.6575L46.789 45.856ZM50.629 35.296L54.557 36.0514C54.8882 34.3291 55.1569 32.7205 55.3603 31.2284L51.397 30.688L47.4337 30.1475C47.2532 31.4715 47.0098 32.9348 46.701 34.5406L50.629 35.296ZM51.397 30.688L55.3603 31.2284C55.5714 29.6809 55.685 28.2167 55.685 26.848H51.685H47.685C47.685 27.7833 47.6067 28.8791 47.4337 30.1475L51.397 30.688ZM51.685 26.848H55.685C55.685 22.8548 54.6571 18.8713 51.322 16.489L48.997 19.744L46.6721 22.9989C46.9209 23.1767 47.685 23.9291 47.685 26.848H51.685ZM48.997 19.744L51.322 16.489C48.5025 14.4752 44.6232 13.824 40.453 13.824V17.824V21.824C44.0908 21.824 45.9075 22.4528 46.6721 22.9989L48.997 19.744ZM40.453 17.824V13.824H33.157V17.824V21.824H40.453V17.824ZM33.157 17.824L29.2452 16.9889L21.9492 51.1649L25.861 52L29.7729 52.8351L37.0689 18.6591L33.157 17.824Z" fill="#282828" mask="url(#path-1-outside-1_113_48)"/>
<defs>
<linearGradient id="paint0_linear_113_48" x1="38.1921" y1="-3.17603" x2="38.1921" y2="67.824" gradientUnits="userSpaceOnUse">
<stop stop-color="#FF0084"/>
<stop offset="1" stop-color="#FF0000"/>
</linearGradient>
</defs>
</svg>
