<svg width="69" height="72" viewBox="0 0 69 72" fill="none" xmlns="http://www.w3.org/2000/svg">
<mask id="path-1-outside-1_113_61" maskUnits="userSpaceOnUse" x="-0.435791" y="-0.216003" width="70" height="72" fill="black">
<rect fill="white" x="-0.435791" y="-0.216003" width="70" height="72"/>
<path d="M32.608 67.744C23.712 67.744 16.704 65.696 11.584 61.6C6.52796 57.504 3.99996 51.68 3.99996 44.128C3.99996 41.696 4.28796 39.04 4.86396 36.16C7.10396 25.792 11.456 17.856 17.92 12.352C24.384 6.78399 33.792 3.99999 46.144 3.99999C49.984 3.99999 53.312 4.28799 56.128 4.86399C59.008 5.43999 61.728 6.23999 64.288 7.264L60.928 23.008C56 20.576 50.4 19.36 44.128 19.36C38.304 19.36 33.696 20.704 30.304 23.392C26.912 26.016 24.576 30.272 23.296 36.16C23.04 37.312 22.848 38.4 22.72 39.424C22.592 40.384 22.528 41.312 22.528 42.208C22.528 45.728 23.648 48.32 25.888 49.984C28.192 51.584 31.968 52.384 37.216 52.384C40.288 52.384 43.328 52.096 46.336 51.52C49.408 50.944 52.512 50.048 55.648 48.832L52.288 64.672C49.344 65.632 46.272 66.368 43.072 66.88C39.936 67.456 36.448 67.744 32.608 67.744Z"/>
</mask>
<path d="M32.608 67.744C23.712 67.744 16.704 65.696 11.584 61.6C6.52796 57.504 3.99996 51.68 3.99996 44.128C3.99996 41.696 4.28796 39.04 4.86396 36.16C7.10396 25.792 11.456 17.856 17.92 12.352C24.384 6.78399 33.792 3.99999 46.144 3.99999C49.984 3.99999 53.312 4.28799 56.128 4.86399C59.008 5.43999 61.728 6.23999 64.288 7.264L60.928 23.008C56 20.576 50.4 19.36 44.128 19.36C38.304 19.36 33.696 20.704 30.304 23.392C26.912 26.016 24.576 30.272 23.296 36.16C23.04 37.312 22.848 38.4 22.72 39.424C22.592 40.384 22.528 41.312 22.528 42.208C22.528 45.728 23.648 48.32 25.888 49.984C28.192 51.584 31.968 52.384 37.216 52.384C40.288 52.384 43.328 52.096 46.336 51.52C49.408 50.944 52.512 50.048 55.648 48.832L52.288 64.672C49.344 65.632 46.272 66.368 43.072 66.88C39.936 67.456 36.448 67.744 32.608 67.744Z" fill="url(#paint0_linear_113_61)"/>
<path d="M11.584 61.6L9.06603 64.7081L9.07558 64.7158L9.08518 64.7235L11.584 61.6ZM4.86396 36.16L0.954168 35.3153L0.94767 35.3454L0.941637 35.3755L4.86396 36.16ZM17.92 12.352L20.5132 15.3975L20.5219 15.3901L20.5305 15.3827L17.92 12.352ZM56.128 4.86399L55.3264 8.78285L55.3349 8.7846L55.3435 8.78632L56.128 4.86399ZM64.288 7.264L68.1999 8.09885L68.9035 4.80206L65.7735 3.55009L64.288 7.264ZM60.928 23.008L59.1578 26.595L63.7671 28.8697L64.8399 23.8429L60.928 23.008ZM30.304 23.392L32.7514 26.5558L32.77 26.5415L32.7883 26.527L30.304 23.392ZM23.296 36.16L27.2007 37.0277L27.2027 37.0187L27.2047 37.0097L23.296 36.16ZM22.72 39.424L26.6849 39.9527L26.687 39.9364L26.6891 39.9201L22.72 39.424ZM25.888 49.984L23.5027 53.195L23.5539 53.2331L23.6064 53.2695L25.888 49.984ZM46.336 51.52L45.5988 47.5885L45.5912 47.5899L45.5837 47.5914L46.336 51.52ZM55.648 48.832L59.5609 49.662L61.095 42.4297L54.2018 45.1026L55.648 48.832ZM52.288 64.672L53.528 68.4749L55.722 67.7595L56.2009 65.502L52.288 64.672ZM43.072 66.88L42.44 62.9302L42.3946 62.9375L42.3494 62.9458L43.072 66.88ZM32.608 67.744V63.744C24.2979 63.744 18.2772 61.8321 14.0827 58.4765L11.584 61.6L9.08518 64.7235C15.1308 69.5599 23.126 71.744 32.608 71.744V67.744ZM11.584 61.6L14.1019 58.4919C10.14 55.2823 7.99996 50.6906 7.99996 44.128H3.99996H-4.1008e-05C-4.1008e-05 52.6694 2.91596 59.7257 9.06603 64.7081L11.584 61.6ZM3.99996 44.128H7.99996C7.99996 42.007 8.25169 39.6174 8.78628 36.9445L4.86396 36.16L0.941637 35.3755C0.324228 38.4626 -4.1008e-05 41.385 -4.1008e-05 44.128H3.99996ZM4.86396 36.16L8.77375 37.0047C10.8754 27.2771 14.8695 20.203 20.5132 15.3975L17.92 12.352L15.3267 9.30647C8.04239 15.509 3.33253 24.3069 0.954168 35.3153L4.86396 36.16ZM17.92 12.352L20.5305 15.3827C26.0031 10.6687 34.3294 7.99999 46.144 7.99999V3.99999V-7.62939e-06C33.2546 -7.62939e-06 22.7648 2.89931 15.3094 9.32133L17.92 12.352ZM46.144 3.99999V7.99999C49.7984 7.99999 52.8451 8.27532 55.3264 8.78285L56.128 4.86399L56.9296 0.945129C53.7788 0.300667 50.1696 -7.62939e-06 46.144 -7.62939e-06V3.99999ZM56.128 4.86399L55.3435 8.78632C57.9994 9.31749 60.4834 10.0503 62.8024 10.9779L64.288 7.264L65.7735 3.55009C62.9725 2.42967 60.0165 1.56249 56.9124 0.941673L56.128 4.86399ZM64.288 7.264L60.3761 6.42914L57.0161 22.1731L60.928 23.008L64.8399 23.8429L68.1999 8.09885L64.288 7.264ZM60.928 23.008L62.6982 19.421C57.1465 16.6812 50.9268 15.36 44.128 15.36V19.36V23.36C49.8731 23.36 54.8534 24.4708 59.1578 26.595L60.928 23.008ZM44.128 19.36V15.36C37.7127 15.36 32.1286 16.8423 27.8196 20.257L30.304 23.392L32.7883 26.527C35.2633 24.5657 38.8952 23.36 44.128 23.36V19.36ZM30.304 23.392L27.8565 20.2282C23.4688 23.6224 20.7871 28.8711 19.3873 35.3103L23.296 36.16L27.2047 37.0097C28.3648 31.6729 30.3551 28.4096 32.7514 26.5558L30.304 23.392ZM23.296 36.16L19.3912 35.2923C19.1117 36.55 18.8965 37.7629 18.7508 38.9279L22.72 39.424L26.6891 39.9201C26.7994 39.0371 26.9682 38.074 27.2007 37.0277L23.296 36.16ZM22.72 39.424L18.755 38.8953C18.6055 40.0166 18.528 41.1217 18.528 42.208H22.528H26.528C26.528 41.5023 26.5784 40.7513 26.6849 39.9527L22.72 39.424ZM22.528 42.208H18.528C18.528 46.627 19.9847 50.5816 23.5027 53.195L25.888 49.984L28.2733 46.773C27.3112 46.0583 26.528 44.829 26.528 42.208H22.528ZM25.888 49.984L23.6064 53.2695C26.9487 55.5905 31.7609 56.384 37.216 56.384V52.384V48.384C32.175 48.384 29.4352 47.5774 28.1695 46.6985L25.888 49.984ZM37.216 52.384V56.384C40.5396 56.384 43.8315 56.0722 47.0882 55.4486L46.336 51.52L45.5837 47.5914C42.8244 48.1198 40.0363 48.384 37.216 48.384V52.384ZM46.336 51.52L47.0731 55.4515C50.4047 54.8268 53.7457 53.8598 57.0941 52.5614L55.648 48.832L54.2018 45.1026C51.2782 46.2362 48.4112 47.0612 45.5988 47.5885L46.336 51.52ZM55.648 48.832L51.735 48.002L48.375 63.842L52.288 64.672L56.2009 65.502L59.5609 49.662L55.648 48.832ZM52.288 64.672L51.0479 60.8691C48.3114 61.7614 45.4433 62.4497 42.44 62.9302L43.072 66.88L43.7039 70.8298C47.1006 70.2863 50.3765 69.5026 53.528 68.4749L52.288 64.672ZM43.072 66.88L42.3494 62.9458C39.4941 63.4702 36.2529 63.744 32.608 63.744V67.744V71.744C36.643 71.744 40.3778 71.4418 43.7946 70.8142L43.072 66.88Z" fill="#282828" mask="url(#path-1-outside-1_113_61)"/>
<defs>
<linearGradient id="paint0_linear_113_61" x1="30.5642" y1="-2.216" x2="30.5642" y2="68.784" gradientUnits="userSpaceOnUse">
<stop stop-color="#25BDFF"/>
<stop offset="1" stop-color="#008CFF"/>
</linearGradient>
</defs>
</svg>
