<svg width="79" height="70" viewBox="0 0 79 70" fill="none" xmlns="http://www.w3.org/2000/svg">
<mask id="path-1-outside-1_113_57" maskUnits="userSpaceOnUse" x="-0.223389" y="-0.175995" width="79" height="70" fill="black">
<rect fill="white" x="-0.223389" y="-0.175995" width="79" height="70"/>
<path d="M7.03274 65.824L43.8007 4H62.9047L73.5607 65.824H54.7447L52.5367 52.672H33.7207L25.8487 65.824H7.03274ZM38.8087 39.712H52.6327L49.5607 21.568L38.8087 39.712Z"/>
</mask>
<path d="M7.03274 65.824L43.8007 4H62.9047L73.5607 65.824H54.7447L52.5367 52.672H33.7207L25.8487 65.824H7.03274ZM38.8087 39.712H52.6327L49.5607 21.568L38.8087 39.712Z" fill="url(#paint0_linear_113_57)"/>
<path d="M7.03274 65.824L3.59478 63.7794L-7.72476e-05 69.824H7.03274V65.824ZM43.8007 4V0H41.5257L40.3628 1.95538L43.8007 4ZM62.9047 4L66.8466 3.32058L66.2743 0H62.9047V4ZM73.5607 65.824V69.824H78.3092L77.5026 65.1446L73.5607 65.824ZM54.7447 65.824L50.7999 66.4863L51.3603 69.824H54.7447V65.824ZM52.5367 52.672L56.4815 52.0097L55.9212 48.672H52.5367V52.672ZM33.7207 52.672V48.672H31.4531L30.2886 50.6177L33.7207 52.672ZM25.8487 65.824V69.824H28.1163L29.2809 67.8783L25.8487 65.824ZM38.8087 39.712L35.3676 37.6728L31.7888 43.712H38.8087V39.712ZM52.6327 39.712V43.712H57.3669L56.5766 39.0443L52.6327 39.712ZM49.5607 21.568L53.5046 20.9003L51.6829 10.1407L46.1196 19.5288L49.5607 21.568ZM7.03274 65.824L10.4707 67.8686L47.2387 6.04462L43.8007 4L40.3628 1.95538L3.59478 63.7794L7.03274 65.824ZM43.8007 4V8H62.9047V4V0H43.8007V4ZM62.9047 4L58.9629 4.67942L69.6189 66.5034L73.5607 65.824L77.5026 65.1446L66.8466 3.32058L62.9047 4ZM73.5607 65.824V61.824H54.7447V65.824V69.824H73.5607V65.824ZM54.7447 65.824L58.6895 65.1617L56.4815 52.0097L52.5367 52.672L48.5919 53.3343L50.7999 66.4863L54.7447 65.824ZM52.5367 52.672V48.672H33.7207V52.672V56.672H52.5367V52.672ZM33.7207 52.672L30.2886 50.6177L22.4166 63.7697L25.8487 65.824L29.2809 67.8783L37.1529 54.7263L33.7207 52.672ZM25.8487 65.824V61.824H7.03274V65.824V69.824H25.8487V65.824ZM38.8087 39.712V43.712H52.6327V39.712V35.712H38.8087V39.712ZM52.6327 39.712L56.5766 39.0443L53.5046 20.9003L49.5607 21.568L45.6169 22.2357L48.6889 40.3797L52.6327 39.712ZM49.5607 21.568L46.1196 19.5288L35.3676 37.6728L38.8087 39.712L42.2499 41.7512L53.0019 23.6072L49.5607 21.568Z" fill="#282828" mask="url(#path-1-outside-1_113_57)"/>
<defs>
<linearGradient id="paint0_linear_113_57" x1="45.7766" y1="-3.17599" x2="45.7766" y2="67.824" gradientUnits="userSpaceOnUse">
<stop stop-color="#F7FF00"/>
<stop offset="1" stop-color="#FF9500"/>
</linearGradient>
</defs>
</svg>
