<svg width="77" height="64" viewBox="0 0 77 64" fill="none" xmlns="http://www.w3.org/2000/svg">
<mask id="path-1-outside-1_113_42" maskUnits="userSpaceOnUse" x="-0.901123" y="-0.615967" width="78" height="64" fill="black">
<rect fill="white" x="-0.901123" y="-0.615967" width="78" height="64"/>
<path d="M7.8729 59.384L28.3409 31.348L8.6469 4.00003H27.9109L38.0589 18.534L48.2929 4.00003H67.5569L47.8629 31.348L68.3309 59.384H48.8089L38.0589 44.334L27.3949 59.384H7.8729Z"/>
</mask>
<path d="M7.8729 59.384L28.3409 31.348L8.6469 4.00003H27.9109L38.0589 18.534L48.2929 4.00003H67.5569L47.8629 31.348L68.3309 59.384H48.8089L38.0589 44.334L27.3949 59.384H7.8729Z" fill="#6C6C6C"/>
<path d="M7.8729 59.384L4.64225 57.0255L9.67979e-05 63.384H7.8729V59.384ZM28.3409 31.348L31.5716 33.7066L33.2817 31.3641L31.5868 29.0105L28.3409 31.348ZM8.6469 4.00003V3.05176e-05H0.837169L5.40096 6.33752L8.6469 4.00003ZM27.9109 4.00003L31.1906 1.71009L29.9966 3.05176e-05H27.9109V4.00003ZM38.0589 18.534L34.7792 20.824L38.0451 25.5013L41.3295 20.837L38.0589 18.534ZM48.2929 4.00003V3.05176e-05H46.2173L45.0224 1.6971L48.2929 4.00003ZM67.5569 4.00003L70.8028 6.33752L75.3666 3.05176e-05H67.5569V4.00003ZM47.8629 31.348L44.617 29.0105L42.9221 31.3641L44.6322 33.7066L47.8629 31.348ZM68.3309 59.384V63.384H76.2037L71.5616 57.0255L68.3309 59.384ZM48.8089 59.384L45.554 61.709L46.7504 63.384H48.8089V59.384ZM38.0589 44.334L41.3138 42.0091L38.0458 37.4338L34.7952 42.0214L38.0589 44.334ZM27.3949 59.384V63.384H29.463L30.6586 61.6966L27.3949 59.384ZM7.8729 59.384L11.1036 61.7426L31.5716 33.7066L28.3409 31.348L25.1102 28.9895L4.64225 57.0255L7.8729 59.384ZM28.3409 31.348L31.5868 29.0105L11.8928 1.66254L8.6469 4.00003L5.40096 6.33752L25.095 33.6855L28.3409 31.348ZM8.6469 4.00003V8.00003H27.9109V4.00003V3.05176e-05H8.6469V4.00003ZM27.9109 4.00003L24.6312 6.28997L34.7792 20.824L38.0589 18.534L41.3386 16.2441L31.1906 1.71009L27.9109 4.00003ZM38.0589 18.534L41.3295 20.837L51.5635 6.30296L48.2929 4.00003L45.0224 1.6971L34.7884 16.2311L38.0589 18.534ZM48.2929 4.00003V8.00003H67.5569V4.00003V3.05176e-05H48.2929V4.00003ZM67.5569 4.00003L64.311 1.66254L44.617 29.0105L47.8629 31.348L51.1088 33.6855L70.8028 6.33752L67.5569 4.00003ZM47.8629 31.348L44.6322 33.7066L65.1003 61.7426L68.3309 59.384L71.5616 57.0255L51.0936 28.9895L47.8629 31.348ZM68.3309 59.384V55.384H48.8089V59.384V63.384H68.3309V59.384ZM48.8089 59.384L52.0638 57.0591L41.3138 42.0091L38.0589 44.334L34.804 46.659L45.554 61.709L48.8089 59.384ZM38.0589 44.334L34.7952 42.0214L24.1312 57.0714L27.3949 59.384L30.6586 61.6966L41.3226 46.6466L38.0589 44.334ZM27.3949 59.384V55.384H7.8729V59.384V63.384H27.3949V59.384Z" fill="#282828" mask="url(#path-1-outside-1_113_42)"/>
</svg>
