<svg width="73" height="70" viewBox="0 0 73 70" fill="none" xmlns="http://www.w3.org/2000/svg">
<mask id="path-1-outside-1_113_54" maskUnits="userSpaceOnUse" x="-0.932861" y="-0.176025" width="74" height="70" fill="black">
<rect fill="white" x="-0.932861" y="-0.176025" width="74" height="70"/>
<path d="M4.93301 65.824L17.989 3.99997H51.973C57.285 3.99997 61.285 5.15197 63.973 7.45597C66.725 9.69597 68.101 12.8 68.101 16.768C68.101 17.408 68.037 18.112 67.909 18.88C67.845 19.584 67.749 20.32 67.621 21.088C66.981 24.288 65.829 26.976 64.165 29.152C62.501 31.328 60.549 33.056 58.309 34.336C60.293 35.168 61.829 36.32 62.917 37.792C64.069 39.2 64.645 41.12 64.645 43.552C64.645 44.128 64.581 44.768 64.453 45.472C64.389 46.112 64.293 46.784 64.165 47.488C62.949 53.312 60.197 57.824 55.909 61.024C51.685 64.224 46.277 65.824 39.685 65.824H4.93301ZM30.181 28.672H41.893C44.197 28.672 45.957 28.16 47.173 27.136C48.453 26.112 49.317 24.64 49.765 22.72C49.893 22.4 49.957 22.08 49.957 21.76C49.957 21.44 49.957 21.152 49.957 20.896C49.957 19.488 49.477 18.432 48.517 17.728C47.621 17.024 46.085 16.672 43.909 16.672H32.677L30.181 28.672ZM24.901 53.248H37.381C39.813 53.248 41.701 52.736 43.045 51.712C44.453 50.688 45.413 48.992 45.925 46.624C45.989 46.304 46.021 46.016 46.021 45.76C46.085 45.44 46.117 45.152 46.117 44.896C46.117 43.424 45.605 42.336 44.581 41.632C43.557 40.928 41.925 40.576 39.685 40.576H27.589L24.901 53.248Z"/>
</mask>
<path d="M4.93301 65.824L17.989 3.99997H51.973C57.285 3.99997 61.285 5.15197 63.973 7.45597C66.725 9.69597 68.101 12.8 68.101 16.768C68.101 17.408 68.037 18.112 67.909 18.88C67.845 19.584 67.749 20.32 67.621 21.088C66.981 24.288 65.829 26.976 64.165 29.152C62.501 31.328 60.549 33.056 58.309 34.336C60.293 35.168 61.829 36.32 62.917 37.792C64.069 39.2 64.645 41.12 64.645 43.552C64.645 44.128 64.581 44.768 64.453 45.472C64.389 46.112 64.293 46.784 64.165 47.488C62.949 53.312 60.197 57.824 55.909 61.024C51.685 64.224 46.277 65.824 39.685 65.824H4.93301ZM30.181 28.672H41.893C44.197 28.672 45.957 28.16 47.173 27.136C48.453 26.112 49.317 24.64 49.765 22.72C49.893 22.4 49.957 22.08 49.957 21.76C49.957 21.44 49.957 21.152 49.957 20.896C49.957 19.488 49.477 18.432 48.517 17.728C47.621 17.024 46.085 16.672 43.909 16.672H32.677L30.181 28.672ZM24.901 53.248H37.381C39.813 53.248 41.701 52.736 43.045 51.712C44.453 50.688 45.413 48.992 45.925 46.624C45.989 46.304 46.021 46.016 46.021 45.76C46.085 45.44 46.117 45.152 46.117 44.896C46.117 43.424 45.605 42.336 44.581 41.632C43.557 40.928 41.925 40.576 39.685 40.576H27.589L24.901 53.248Z" fill="url(#paint0_linear_113_54)"/>
<path d="M4.93301 65.824L1.01933 64.9975L7.20024e-05 69.824H4.93301V65.824ZM17.989 3.99997V-3.05176e-05H14.7455L14.0753 3.17348L17.989 3.99997ZM63.973 7.45597L61.3699 10.493L61.4085 10.5261L61.4479 10.5582L63.973 7.45597ZM67.909 18.88L63.9634 18.2224L63.9389 18.3694L63.9254 18.5178L67.909 18.88ZM67.621 21.088L71.5433 21.8724L71.556 21.8092L71.5666 21.7456L67.621 21.088ZM64.165 29.152L60.9876 26.7222L60.9876 26.7222L64.165 29.152ZM58.309 34.336L56.3245 30.863L49.2813 34.8876L56.7621 38.0247L58.309 34.336ZM62.917 37.792L59.7003 40.1695L59.7588 40.2487L59.8212 40.3249L62.917 37.792ZM64.453 45.472L60.5175 44.7564L60.4888 44.9143L60.4729 45.074L64.453 45.472ZM64.165 47.488L68.0806 48.3055L68.0912 48.2546L68.1005 48.2035L64.165 47.488ZM55.909 61.024L53.5167 57.8182L53.5051 57.8269L53.4936 57.8356L55.909 61.024ZM30.181 28.672L26.2648 27.8574L25.2634 32.672H30.181V28.672ZM47.173 27.136L44.6742 24.0125L44.635 24.0439L44.5965 24.0763L47.173 27.136ZM49.765 22.72L46.0511 21.2344L45.9385 21.5159L45.8697 21.8111L49.765 22.72ZM48.517 17.728L46.0457 20.8732L46.098 20.9143L46.1516 20.9536L48.517 17.728ZM32.677 16.672V12.672H29.4234L28.7608 15.8574L32.677 16.672ZM24.901 53.248L20.9881 52.418L19.9635 57.248H24.901V53.248ZM43.045 51.712L40.6923 48.477L40.6563 48.5032L40.6208 48.5302L43.045 51.712ZM45.925 46.624L49.8347 47.4693L49.8412 47.4389L49.8473 47.4084L45.925 46.624ZM46.021 45.76L42.0987 44.9755L42.021 45.3639V45.76H46.021ZM44.581 41.632L42.3149 44.9281V44.9281L44.581 41.632ZM27.589 40.576V36.576H24.3485L23.6761 39.746L27.589 40.576ZM4.93301 65.824L8.8467 66.6505L21.9027 4.82646L17.989 3.99997L14.0753 3.17348L1.01933 64.9975L4.93301 65.824ZM17.989 3.99997V7.99997H51.973V3.99997V-3.05176e-05H17.989V3.99997ZM51.973 3.99997V7.99997C56.792 7.99997 59.6937 9.05634 61.3699 10.493L63.973 7.45597L66.5762 4.41895C62.8763 1.2476 57.778 -3.05176e-05 51.973 -3.05176e-05V3.99997ZM63.973 7.45597L61.4479 10.5582C63.1486 11.9425 64.101 13.8422 64.101 16.768H68.101H72.101C72.101 11.7577 70.3015 7.44947 66.4981 4.35373L63.973 7.45597ZM68.101 16.768H64.101C64.101 17.1465 64.0627 17.6269 63.9634 18.2224L67.909 18.88L71.8546 19.5376C72.0114 18.597 72.101 17.6694 72.101 16.768H68.101ZM67.909 18.88L63.9254 18.5178C63.8713 19.1136 63.7887 19.7507 63.6754 20.4304L67.621 21.088L71.5666 21.7456C71.7093 20.8893 71.8187 20.0544 71.8926 19.2421L67.909 18.88ZM67.621 21.088L63.6987 20.3035C63.1556 23.0188 62.2168 25.1148 60.9876 26.7222L64.165 29.152L67.3424 31.5818C69.4413 28.8372 70.8064 25.5572 71.5433 21.8724L67.621 21.088ZM64.165 29.152L60.9876 26.7222C59.6273 28.5009 58.0731 29.8638 56.3245 30.863L58.309 34.336L60.2936 37.8089C63.025 36.2481 65.3747 34.155 67.3425 31.5818L64.165 29.152ZM58.309 34.336L56.7621 38.0247C58.1993 38.6274 59.1106 39.3717 59.7003 40.1695L62.917 37.792L66.1337 35.4144C64.5474 33.2682 62.3868 31.7085 59.8559 30.6472L58.309 34.336ZM62.917 37.792L59.8212 40.3249C60.2175 40.8093 60.645 41.7314 60.645 43.552H64.645H68.645C68.645 40.5086 67.9206 37.5907 66.0129 35.259L62.917 37.792ZM64.645 43.552H60.645C60.645 43.8387 60.6124 44.2344 60.5175 44.7564L64.453 45.472L68.3885 46.1875C68.5496 45.3015 68.645 44.4173 68.645 43.552H64.645ZM64.453 45.472L60.4729 45.074C60.4206 45.5965 60.3405 46.1621 60.2295 46.7724L64.165 47.488L68.1005 48.2035C68.2455 47.4058 68.3574 46.6274 68.4332 45.87L64.453 45.472ZM64.165 47.488L60.2495 46.6704C59.2089 51.6542 56.9333 55.2685 53.5167 57.8182L55.909 61.024L58.3014 64.2297C63.4607 60.3794 66.6892 54.9697 68.0806 48.3055L64.165 47.488ZM55.909 61.024L53.4936 57.8356C50.1195 60.3917 45.6215 61.824 39.685 61.824V65.824V69.824C46.9326 69.824 53.2505 68.0563 58.3244 64.2123L55.909 61.024ZM39.685 65.824V61.824H4.93301V65.824V69.824H39.685V65.824ZM30.181 28.672V32.672H41.893V28.672V24.672H30.181V28.672ZM41.893 28.672V32.672C44.7258 32.672 47.5489 32.0488 49.7496 30.1956L47.173 27.136L44.5965 24.0763C44.3652 24.2711 43.6682 24.672 41.893 24.672V28.672ZM47.173 27.136L49.6718 30.2594C51.7865 28.5676 53.0512 26.2396 53.6604 23.6289L49.765 22.72L45.8697 21.8111C45.5828 23.0403 45.1195 23.6563 44.6742 24.0125L47.173 27.136ZM49.765 22.72L53.4789 24.2055C53.7812 23.4497 53.957 22.6269 53.957 21.76H49.957H45.957C45.957 21.533 46.0048 21.3502 46.0511 21.2344L49.765 22.72ZM49.957 21.76H53.957C53.957 21.7593 53.957 21.7587 53.957 21.7581C53.957 21.7575 53.957 21.7568 53.957 21.7562C53.957 21.7556 53.957 21.755 53.957 21.7544C53.957 21.7537 53.957 21.7531 53.957 21.7525C53.957 21.7519 53.957 21.7512 53.957 21.7506C53.957 21.75 53.957 21.7494 53.957 21.7487C53.957 21.7481 53.957 21.7475 53.957 21.7469C53.957 21.7462 53.957 21.7456 53.957 21.745C53.957 21.7444 53.957 21.7438 53.957 21.7431C53.957 21.7425 53.957 21.7419 53.957 21.7413C53.957 21.7406 53.957 21.74 53.957 21.7394C53.957 21.7388 53.957 21.7381 53.957 21.7375C53.957 21.7369 53.957 21.7363 53.957 21.7357C53.957 21.735 53.957 21.7344 53.957 21.7338C53.957 21.7332 53.957 21.7326 53.957 21.7319C53.957 21.7313 53.957 21.7307 53.957 21.7301C53.957 21.7294 53.957 21.7288 53.957 21.7282C53.957 21.7276 53.957 21.727 53.957 21.7263C53.957 21.7257 53.957 21.7251 53.957 21.7245C53.957 21.7239 53.957 21.7232 53.957 21.7226C53.957 21.722 53.957 21.7214 53.957 21.7208C53.957 21.7201 53.957 21.7195 53.957 21.7189C53.957 21.7183 53.957 21.7177 53.957 21.717C53.957 21.7164 53.957 21.7158 53.957 21.7152C53.957 21.7146 53.957 21.7139 53.957 21.7133C53.957 21.7127 53.957 21.7121 53.957 21.7115C53.957 21.7108 53.957 21.7102 53.957 21.7096C53.957 21.709 53.957 21.7084 53.957 21.7078C53.957 21.7071 53.957 21.7065 53.957 21.7059C53.957 21.7053 53.957 21.7047 53.957 21.7041C53.957 21.7034 53.957 21.7028 53.957 21.7022C53.957 21.7016 53.957 21.701 53.957 21.7003C53.957 21.6997 53.957 21.6991 53.957 21.6985C53.957 21.6979 53.957 21.6973 53.957 21.6966C53.957 21.696 53.957 21.6954 53.957 21.6948C53.957 21.6942 53.957 21.6936 53.957 21.6929C53.957 21.6923 53.957 21.6917 53.957 21.6911C53.957 21.6905 53.957 21.6899 53.957 21.6893C53.957 21.6886 53.957 21.688 53.957 21.6874C53.957 21.6868 53.957 21.6862 53.957 21.6856C53.957 21.6849 53.957 21.6843 53.957 21.6837C53.957 21.6831 53.957 21.6825 53.957 21.6819C53.957 21.6813 53.957 21.6806 53.957 21.68C53.957 21.6794 53.957 21.6788 53.957 21.6782C53.957 21.6776 53.957 21.677 53.957 21.6763C53.957 21.6757 53.957 21.6751 53.957 21.6745C53.957 21.6739 53.957 21.6733 53.957 21.6727C53.957 21.672 53.957 21.6714 53.957 21.6708C53.957 21.6702 53.957 21.6696 53.957 21.669C53.957 21.6684 53.957 21.6678 53.957 21.6671C53.957 21.6665 53.957 21.6659 53.957 21.6653C53.957 21.6647 53.957 21.6641 53.957 21.6635C53.957 21.6628 53.957 21.6622 53.957 21.6616C53.957 21.661 53.957 21.6604 53.957 21.6598C53.957 21.6592 53.957 21.6586 53.957 21.658C53.957 21.6573 53.957 21.6567 53.957 21.6561C53.957 21.6555 53.957 21.6549 53.957 21.6543C53.957 21.6537 53.957 21.6531 53.957 21.6525C53.957 21.6518 53.957 21.6512 53.957 21.6506C53.957 21.65 53.957 21.6494 53.957 21.6488C53.957 21.6482 53.957 21.6476 53.957 21.647C53.957 21.6464 53.957 21.6457 53.957 21.6451C53.957 21.6445 53.957 21.6439 53.957 21.6433C53.957 21.6427 53.957 21.6421 53.957 21.6415C53.957 21.6409 53.957 21.6403 53.957 21.6396C53.957 21.639 53.957 21.6384 53.957 21.6378C53.957 21.6372 53.957 21.6366 53.957 21.636C53.957 21.6354 53.957 21.6348 53.957 21.6342C53.957 21.6336 53.957 21.6329 53.957 21.6323C53.957 21.6317 53.957 21.6311 53.957 21.6305C53.957 21.6299 53.957 21.6293 53.957 21.6287C53.957 21.6281 53.957 21.6275 53.957 21.6269C53.957 21.6263 53.957 21.6257 53.957 21.625C53.957 21.6244 53.957 21.6238 53.957 21.6232C53.957 21.6226 53.957 21.622 53.957 21.6214C53.957 21.6208 53.957 21.6202 53.957 21.6196C53.957 21.619 53.957 21.6184 53.957 21.6178C53.957 21.6172 53.957 21.6166 53.957 21.616C53.957 21.6153 53.957 21.6147 53.957 21.6141C53.957 21.6135 53.957 21.6129 53.957 21.6123C53.957 21.6117 53.957 21.6111 53.957 21.6105C53.957 21.6099 53.957 21.6093 53.957 21.6087C53.957 21.6081 53.957 21.6075 53.957 21.6069C53.957 21.6063 53.957 21.6057 53.957 21.6051C53.957 21.6045 53.957 21.6038 53.957 21.6032C53.957 21.6026 53.957 21.602 53.957 21.6014C53.957 21.6008 53.957 21.6002 53.957 21.5996C53.957 21.599 53.957 21.5984 53.957 21.5978C53.957 21.5972 53.957 21.5966 53.957 21.596C53.957 21.5954 53.957 21.5948 53.957 21.5942C53.957 21.5936 53.957 21.593 53.957 21.5924C53.957 21.5918 53.957 21.5912 53.957 21.5906C53.957 21.59 53.957 21.5894 53.957 21.5888C53.957 21.5882 53.957 21.5876 53.957 21.587C53.957 21.5864 53.957 21.5858 53.957 21.5852C53.957 21.5846 53.957 21.584 53.957 21.5833C53.957 21.5827 53.957 21.5821 53.957 21.5815C53.957 21.5809 53.957 21.5803 53.957 21.5797C53.957 21.5791 53.957 21.5785 53.957 21.5779C53.957 21.5773 53.957 21.5767 53.957 21.5761C53.957 21.5755 53.957 21.5749 53.957 21.5743C53.957 21.5737 53.957 21.5731 53.957 21.5725C53.957 21.5719 53.957 21.5713 53.957 21.5707C53.957 21.5701 53.957 21.5695 53.957 21.5689C53.957 21.5683 53.957 21.5677 53.957 21.5671C53.957 21.5665 53.957 21.5659 53.957 21.5653C53.957 21.5647 53.957 21.5641 53.957 21.5635C53.957 21.5629 53.957 21.5623 53.957 21.5617C53.957 21.5611 53.957 21.5605 53.957 21.5599C53.957 21.5593 53.957 21.5588 53.957 21.5582C53.957 21.5576 53.957 21.557 53.957 21.5564C53.957 21.5558 53.957 21.5552 53.957 21.5546C53.957 21.554 53.957 21.5534 53.957 21.5528C53.957 21.5522 53.957 21.5516 53.957 21.551C53.957 21.5504 53.957 21.5498 53.957 21.5492C53.957 21.5486 53.957 21.548 53.957 21.5474C53.957 21.5468 53.957 21.5462 53.957 21.5456C53.957 21.545 53.957 21.5444 53.957 21.5438C53.957 21.5432 53.957 21.5426 53.957 21.542C53.957 21.5414 53.957 21.5408 53.957 21.5402C53.957 21.5396 53.957 21.5391 53.957 21.5385C53.957 21.5379 53.957 21.5373 53.957 21.5367C53.957 21.5361 53.957 21.5355 53.957 21.5349C53.957 21.5343 53.957 21.5337 53.957 21.5331C53.957 21.5325 53.957 21.5319 53.957 21.5313C53.957 21.5307 53.957 21.5301 53.957 21.5295C53.957 21.5289 53.957 21.5283 53.957 21.5278C53.957 21.5272 53.957 21.5266 53.957 21.526C53.957 21.5254 53.957 21.5248 53.957 21.5242C53.957 21.5236 53.957 21.523 53.957 21.5224C53.957 21.5218 53.957 21.5212 53.957 21.5206C53.957 21.52 53.957 21.5194 53.957 21.5189C53.957 21.5183 53.957 21.5177 53.957 21.5171C53.957 21.5165 53.957 21.5159 53.957 21.5153C53.957 21.5147 53.957 21.5141 53.957 21.5135C53.957 21.5129 53.957 21.5123 53.957 21.5117C53.957 21.5112 53.957 21.5106 53.957 21.51C53.957 21.5094 53.957 21.5088 53.957 21.5082C53.957 21.5076 53.957 21.507 53.957 21.5064C53.957 21.5058 53.957 21.5052 53.957 21.5047C53.957 21.5041 53.957 21.5035 53.957 21.5029C53.957 21.5023 53.957 21.5017 53.957 21.5011C53.957 21.5005 53.957 21.4999 53.957 21.4993C53.957 21.4987 53.957 21.4982 53.957 21.4976C53.957 21.497 53.957 21.4964 53.957 21.4958C53.957 21.4952 53.957 21.4946 53.957 21.494C53.957 21.4934 53.957 21.4929 53.957 21.4923C53.957 21.4917 53.957 21.4911 53.957 21.4905C53.957 21.4899 53.957 21.4893 53.957 21.4887C53.957 21.4881 53.957 21.4876 53.957 21.487C53.957 21.4864 53.957 21.4858 53.957 21.4852C53.957 21.4846 53.957 21.484 53.957 21.4834C53.957 21.4828 53.957 21.4823 53.957 21.4817C53.957 21.4811 53.957 21.4805 53.957 21.4799C53.957 21.4793 53.957 21.4787 53.957 21.4781C53.957 21.4776 53.957 21.477 53.957 21.4764C53.957 21.4758 53.957 21.4752 53.957 21.4746C53.957 21.474 53.957 21.4734 53.957 21.4729C53.957 21.4723 53.957 21.4717 53.957 21.4711C53.957 21.4705 53.957 21.4699 53.957 21.4693C53.957 21.4688 53.957 21.4682 53.957 21.4676C53.957 21.467 53.957 21.4664 53.957 21.4658C53.957 21.4652 53.957 21.4647 53.957 21.4641C53.957 21.4635 53.957 21.4629 53.957 21.4623C53.957 21.4617 53.957 21.4612 53.957 21.4606C53.957 21.46 53.957 21.4594 53.957 21.4588C53.957 21.4582 53.957 21.4576 53.957 21.4571C53.957 21.4565 53.957 21.4559 53.957 21.4553C53.957 21.4547 53.957 21.4541 53.957 21.4536C53.957 21.453 53.957 21.4524 53.957 21.4518C53.957 21.4512 53.957 21.4506 53.957 21.4501C53.957 21.4495 53.957 21.4489 53.957 21.4483C53.957 21.4477 53.957 21.4471 53.957 21.4466C53.957 21.446 53.957 21.4454 53.957 21.4448C53.957 21.4442 53.957 21.4436 53.957 21.4431C53.957 21.4425 53.957 21.4419 53.957 21.4413C53.957 21.4407 53.957 21.4402 53.957 21.4396C53.957 21.439 53.957 21.4384 53.957 21.4378C53.957 21.4372 53.957 21.4367 53.957 21.4361C53.957 21.4355 53.957 21.4349 53.957 21.4343C53.957 21.4338 53.957 21.4332 53.957 21.4326C53.957 21.432 53.957 21.4314 53.957 21.4309C53.957 21.4303 53.957 21.4297 53.957 21.4291C53.957 21.4285 53.957 21.428 53.957 21.4274C53.957 21.4268 53.957 21.4262 53.957 21.4256C53.957 21.4251 53.957 21.4245 53.957 21.4239C53.957 21.4233 53.957 21.4227 53.957 21.4222C53.957 21.4216 53.957 21.421 53.957 21.4204C53.957 21.4198 53.957 21.4193 53.957 21.4187C53.957 21.4181 53.957 21.4175 53.957 21.4169C53.957 21.4164 53.957 21.4158 53.957 21.4152C53.957 21.4146 53.957 21.4141 53.957 21.4135C53.957 21.4129 53.957 21.4123 53.957 21.4117C53.957 21.4112 53.957 21.4106 53.957 21.41C53.957 21.4094 53.957 21.4089 53.957 21.4083C53.957 21.4077 53.957 21.4071 53.957 21.4065C53.957 21.406 53.957 21.4054 53.957 21.4048C53.957 21.4042 53.957 21.4037 53.957 21.4031C53.957 21.4025 53.957 21.4019 53.957 21.4014C53.957 21.4008 53.957 21.4002 53.957 21.3996C53.957 21.399 53.957 21.3985 53.957 21.3979C53.957 21.3973 53.957 21.3967 53.957 21.3962C53.957 21.3956 53.957 21.395 53.957 21.3944C53.957 21.3939 53.957 21.3933 53.957 21.3927C53.957 21.3921 53.957 21.3916 53.957 21.391C53.957 21.3904 53.957 21.3898 53.957 21.3893C53.957 21.3887 53.957 21.3881 53.957 21.3875C53.957 21.387 53.957 21.3864 53.957 21.3858C53.957 21.3852 53.957 21.3847 53.957 21.3841C53.957 21.3835 53.957 21.3829 53.957 21.3824C53.957 21.3818 53.957 21.3812 53.957 21.3807C53.957 21.3801 53.957 21.3795 53.957 21.3789C53.957 21.3784 53.957 21.3778 53.957 21.3772C53.957 21.3766 53.957 21.3761 53.957 21.3755C53.957 21.3749 53.957 21.3743 53.957 21.3738C53.957 21.3732 53.957 21.3726 53.957 21.3721C53.957 21.3715 53.957 21.3709 53.957 21.3703C53.957 21.3698 53.957 21.3692 53.957 21.3686C53.957 21.3681 53.957 21.3675 53.957 21.3669C53.957 21.3663 53.957 21.3658 53.957 21.3652C53.957 21.3646 53.957 21.3641 53.957 21.3635C53.957 21.3629 53.957 21.3623 53.957 21.3618C53.957 21.3612 53.957 21.3606 53.957 21.3601C53.957 21.3595 53.957 21.3589 53.957 21.3583C53.957 21.3578 53.957 21.3572 53.957 21.3566C53.957 21.3561 53.957 21.3555 53.957 21.3549C53.957 21.3544 53.957 21.3538 53.957 21.3532C53.957 21.3526 53.957 21.3521 53.957 21.3515C53.957 21.3509 53.957 21.3504 53.957 21.3498C53.957 21.3492 53.957 21.3487 53.957 21.3481C53.957 21.3475 53.957 21.347 53.957 21.3464C53.957 21.3458 53.957 21.3453 53.957 21.3447C53.957 21.3441 53.957 21.3435 53.957 21.343C53.957 21.3424 53.957 21.3418 53.957 21.3413C53.957 21.3407 53.957 21.3401 53.957 21.3396C53.957 21.339 53.957 21.3384 53.957 21.3379C53.957 21.3373 53.957 21.3367 53.957 21.3362C53.957 21.3356 53.957 21.335 53.957 21.3345C53.957 21.3339 53.957 21.3333 53.957 21.3328C53.957 21.3322 53.957 21.3316 53.957 21.3311C53.957 21.3305 53.957 21.3299 53.957 21.3294C53.957 21.3288 53.957 21.3282 53.957 21.3277C53.957 21.3271 53.957 21.3265 53.957 21.326C53.957 21.3254 53.957 21.3248 53.957 21.3243C53.957 21.3237 53.957 21.3231 53.957 21.3226C53.957 21.322 53.957 21.3214 53.957 21.3209C53.957 21.3203 53.957 21.3198 53.957 21.3192C53.957 21.3186 53.957 21.3181 53.957 21.3175C53.957 21.3169 53.957 21.3164 53.957 21.3158C53.957 21.3152 53.957 21.3147 53.957 21.3141C53.957 21.3135 53.957 21.313 53.957 21.3124C53.957 21.3119 53.957 21.3113 53.957 21.3107C53.957 21.3102 53.957 21.3096 53.957 21.309C53.957 21.3085 53.957 21.3079 53.957 21.3074C53.957 21.3068 53.957 21.3062 53.957 21.3057C53.957 21.3051 53.957 21.3045 53.957 21.304C53.957 21.3034 53.957 21.3028 53.957 21.3023C53.957 21.3017 53.957 21.3012 53.957 21.3006C53.957 21.3 53.957 21.2995 53.957 21.2989C53.957 21.2984 53.957 21.2978 53.957 21.2972C53.957 21.2967 53.957 21.2961 53.957 21.2955C53.957 21.295 53.957 21.2944 53.957 21.2939C53.957 21.2933 53.957 21.2927 53.957 21.2922C53.957 21.2916 53.957 21.2911 53.957 21.2905C53.957 21.2899 53.957 21.2894 53.957 21.2888C53.957 21.2883 53.957 21.2877 53.957 21.2871C53.957 21.2866 53.957 21.286 53.957 21.2855C53.957 21.2849 53.957 21.2843 53.957 21.2838C53.957 21.2832 53.957 21.2827 53.957 21.2821C53.957 21.2815 53.957 21.281 53.957 21.2804C53.957 21.2799 53.957 21.2793 53.957 21.2787C53.957 21.2782 53.957 21.2776 53.957 21.2771C53.957 21.2765 53.957 21.2759 53.957 21.2754C53.957 21.2748 53.957 21.2743 53.957 21.2737C53.957 21.2732 53.957 21.2726 53.957 21.272C53.957 21.2715 53.957 21.2709 53.957 21.2704C53.957 21.2698 53.957 21.2693 53.957 21.2687C53.957 21.2681 53.957 21.2676 53.957 21.267C53.957 21.2665 53.957 21.2659 53.957 21.2654C53.957 21.2648 53.957 21.2642 53.957 21.2637C53.957 21.2631 53.957 21.2626 53.957 21.262C53.957 21.2615 53.957 21.2609 53.957 21.2603C53.957 21.2598 53.957 21.2592 53.957 21.2587C53.957 21.2581 53.957 21.2576 53.957 21.257C53.957 21.2565 53.957 21.2559 53.957 21.2553C53.957 21.2548 53.957 21.2542 53.957 21.2537C53.957 21.2531 53.957 21.2526 53.957 21.252C53.957 21.2515 53.957 21.2509 53.957 21.2503C53.957 21.2498 53.957 21.2492 53.957 21.2487C53.957 21.2481 53.957 21.2476 53.957 21.247C53.957 21.2465 53.957 21.2459 53.957 21.2454C53.957 21.2448 53.957 21.2443 53.957 21.2437C53.957 21.2431 53.957 21.2426 53.957 21.242C53.957 21.2415 53.957 21.2409 53.957 21.2404C53.957 21.2398 53.957 21.2393 53.957 21.2387C53.957 21.2382 53.957 21.2376 53.957 21.2371C53.957 21.2365 53.957 21.236 53.957 21.2354C53.957 21.2348 53.957 21.2343 53.957 21.2337C53.957 21.2332 53.957 21.2326 53.957 21.2321C53.957 21.2315 53.957 21.231 53.957 21.2304C53.957 21.2299 53.957 21.2293 53.957 21.2288C53.957 21.2282 53.957 21.2277 53.957 21.2271C53.957 21.2266 53.957 21.226 53.957 21.2255C53.957 21.2249 53.957 21.2244 53.957 21.2238C53.957 21.2233 53.957 21.2227 53.957 21.2222C53.957 21.2216 53.957 21.2211 53.957 21.2205C53.957 21.22 53.957 21.2194 53.957 21.2189C53.957 21.2183 53.957 21.2178 53.957 21.2172C53.957 21.2167 53.957 21.2161 53.957 21.2156C53.957 21.215 53.957 21.2145 53.957 21.2139C53.957 21.2134 53.957 21.2128 53.957 21.2123C53.957 21.2117 53.957 21.2112 53.957 21.2106C53.957 21.2101 53.957 21.2095 53.957 21.209C53.957 21.2084 53.957 21.2079 53.957 21.2073C53.957 21.2068 53.957 21.2062 53.957 21.2057C53.957 21.2051 53.957 21.2046 53.957 21.204C53.957 21.2035 53.957 21.2029 53.957 21.2024C53.957 21.2019 53.957 21.2013 53.957 21.2008C53.957 21.2002 53.957 21.1997 53.957 21.1991C53.957 21.1986 53.957 21.198 53.957 21.1975C53.957 21.1969 53.957 21.1964 53.957 21.1958C53.957 21.1953 53.957 21.1947 53.957 21.1942C53.957 21.1936 53.957 21.1931 53.957 21.1926C53.957 21.192 53.957 21.1915 53.957 21.1909C53.957 21.1904 53.957 21.1898 53.957 21.1893C53.957 21.1887 53.957 21.1882 53.957 21.1876C53.957 21.1871 53.957 21.1866 53.957 21.186C53.957 21.1855 53.957 21.1849 53.957 21.1844C53.957 21.1838 53.957 21.1833 53.957 21.1827C53.957 21.1822 53.957 21.1816 53.957 21.1811C53.957 21.1806 53.957 21.18 53.957 21.1795C53.957 21.1789 53.957 21.1784 53.957 21.1778C53.957 21.1773 53.957 21.1768 53.957 21.1762C53.957 21.1757 53.957 21.1751 53.957 21.1746C53.957 21.174 53.957 21.1735 53.957 21.1729C53.957 21.1724 53.957 21.1719 53.957 21.1713C53.957 21.1708 53.957 21.1702 53.957 21.1697C53.957 21.1691 53.957 21.1686 53.957 21.1681C53.957 21.1675 53.957 21.167 53.957 21.1664C53.957 21.1659 53.957 21.1653 53.957 21.1648C53.957 21.1643 53.957 21.1637 53.957 21.1632C53.957 21.1626 53.957 21.1621 53.957 21.1616C53.957 21.161 53.957 21.1605 53.957 21.1599C53.957 21.1594 53.957 21.1588 53.957 21.1583C53.957 21.1578 53.957 21.1572 53.957 21.1567C53.957 21.1561 53.957 21.1556 53.957 21.1551C53.957 21.1545 53.957 21.154 53.957 21.1534C53.957 21.1529 53.957 21.1524 53.957 21.1518C53.957 21.1513 53.957 21.1507 53.957 21.1502C53.957 21.1497 53.957 21.1491 53.957 21.1486C53.957 21.148 53.957 21.1475 53.957 21.147C53.957 21.1464 53.957 21.1459 53.957 21.1453C53.957 21.1448 53.957 21.1443 53.957 21.1437C53.957 21.1432 53.957 21.1427 53.957 21.1421C53.957 21.1416 53.957 21.141 53.957 21.1405C53.957 21.14 53.957 21.1394 53.957 21.1389C53.957 21.1383 53.957 21.1378 53.957 21.1373C53.957 21.1367 53.957 21.1362 53.957 21.1357C53.957 21.1351 53.957 21.1346 53.957 21.134C53.957 21.1335 53.957 21.133 53.957 21.1324C53.957 21.1319 53.957 21.1314 53.957 21.1308C53.957 21.1303 53.957 21.1297 53.957 21.1292C53.957 21.1287 53.957 21.1281 53.957 21.1276C53.957 21.1271 53.957 21.1265 53.957 21.126C53.957 21.1255 53.957 21.1249 53.957 21.1244C53.957 21.1239 53.957 21.1233 53.957 21.1228C53.957 21.1222 53.957 21.1217 53.957 21.1212C53.957 21.1206 53.957 21.1201 53.957 21.1196C53.957 21.119 53.957 21.1185 53.957 21.118C53.957 21.1174 53.957 21.1169 53.957 21.1164C53.957 21.1158 53.957 21.1153 53.957 21.1148C53.957 21.1142 53.957 21.1137 53.957 21.1132C53.957 21.1126 53.957 21.1121 53.957 21.1115C53.957 21.111 53.957 21.1105 53.957 21.1099C53.957 21.1094 53.957 21.1089 53.957 21.1083C53.957 21.1078 53.957 21.1073 53.957 21.1067C53.957 21.1062 53.957 21.1057 53.957 21.1051C53.957 21.1046 53.957 21.1041 53.957 21.1035C53.957 21.103 53.957 21.1025 53.957 21.102C53.957 21.1014 53.957 21.1009 53.957 21.1004C53.957 21.0998 53.957 21.0993 53.957 21.0988C53.957 21.0982 53.957 21.0977 53.957 21.0972C53.957 21.0966 53.957 21.0961 53.957 21.0956C53.957 21.095 53.957 21.0945 53.957 21.094C53.957 21.0934 53.957 21.0929 53.957 21.0924C53.957 21.0918 53.957 21.0913 53.957 21.0908C53.957 21.0903 53.957 21.0897 53.957 21.0892C53.957 21.0887 53.957 21.0881 53.957 21.0876C53.957 21.0871 53.957 21.0865 53.957 21.086C53.957 21.0855 53.957 21.085 53.957 21.0844C53.957 21.0839 53.957 21.0834 53.957 21.0828C53.957 21.0823 53.957 21.0818 53.957 21.0812C53.957 21.0807 53.957 21.0802 53.957 21.0797C53.957 21.0791 53.957 21.0786 53.957 21.0781C53.957 21.0775 53.957 21.077 53.957 21.0765C53.957 21.076 53.957 21.0754 53.957 21.0749C53.957 21.0744 53.957 21.0738 53.957 21.0733C53.957 21.0728 53.957 21.0723 53.957 21.0717C53.957 21.0712 53.957 21.0707 53.957 21.0701C53.957 21.0696 53.957 21.0691 53.957 21.0686C53.957 21.068 53.957 21.0675 53.957 21.067C53.957 21.0665 53.957 21.0659 53.957 21.0654C53.957 21.0649 53.957 21.0644 53.957 21.0638C53.957 21.0633 53.957 21.0628 53.957 21.0622C53.957 21.0617 53.957 21.0612 53.957 21.0607C53.957 21.0601 53.957 21.0596 53.957 21.0591C53.957 21.0586 53.957 21.058 53.957 21.0575C53.957 21.057 53.957 21.0565 53.957 21.0559C53.957 21.0554 53.957 21.0549 53.957 21.0544C53.957 21.0538 53.957 21.0533 53.957 21.0528C53.957 21.0523 53.957 21.0517 53.957 21.0512C53.957 21.0507 53.957 21.0502 53.957 21.0496C53.957 21.0491 53.957 21.0486 53.957 21.0481C53.957 21.0475 53.957 21.047 53.957 21.0465C53.957 21.046 53.957 21.0454 53.957 21.0449C53.957 21.0444 53.957 21.0439 53.957 21.0433C53.957 21.0428 53.957 21.0423 53.957 21.0418C53.957 21.0413 53.957 21.0407 53.957 21.0402C53.957 21.0397 53.957 21.0392 53.957 21.0386C53.957 21.0381 53.957 21.0376 53.957 21.0371C53.957 21.0365 53.957 21.036 53.957 21.0355C53.957 21.035 53.957 21.0345 53.957 21.0339C53.957 21.0334 53.957 21.0329 53.957 21.0324C53.957 21.0319 53.957 21.0313 53.957 21.0308C53.957 21.0303 53.957 21.0298 53.957 21.0292C53.957 21.0287 53.957 21.0282 53.957 21.0277C53.957 21.0272 53.957 21.0266 53.957 21.0261C53.957 21.0256 53.957 21.0251 53.957 21.0246C53.957 21.024 53.957 21.0235 53.957 21.023C53.957 21.0225 53.957 21.022 53.957 21.0214C53.957 21.0209 53.957 21.0204 53.957 21.0199C53.957 21.0194 53.957 21.0188 53.957 21.0183C53.957 21.0178 53.957 21.0173 53.957 21.0168C53.957 21.0162 53.957 21.0157 53.957 21.0152C53.957 21.0147 53.957 21.0142 53.957 21.0136C53.957 21.0131 53.957 21.0126 53.957 21.0121C53.957 21.0116 53.957 21.0111 53.957 21.0105C53.957 21.01 53.957 21.0095 53.957 21.009C53.957 21.0085 53.957 21.0079 53.957 21.0074C53.957 21.0069 53.957 21.0064 53.957 21.0059C53.957 21.0054 53.957 21.0048 53.957 21.0043C53.957 21.0038 53.957 21.0033 53.957 21.0028C53.957 21.0023 53.957 21.0017 53.957 21.0012C53.957 21.0007 53.957 21.0002 53.957 20.9997C53.957 20.9991 53.957 20.9986 53.957 20.9981C53.957 20.9976 53.957 20.9971 53.957 20.9966C53.957 20.9961 53.957 20.9955 53.957 20.995C53.957 20.9945 53.957 20.994 53.957 20.9935C53.957 20.993 53.957 20.9924 53.957 20.9919C53.957 20.9914 53.957 20.9909 53.957 20.9904C53.957 20.9899 53.957 20.9893 53.957 20.9888C53.957 20.9883 53.957 20.9878 53.957 20.9873C53.957 20.9868 53.957 20.9863 53.957 20.9857C53.957 20.9852 53.957 20.9847 53.957 20.9842C53.957 20.9837 53.957 20.9832 53.957 20.9827C53.957 20.9821 53.957 20.9816 53.957 20.9811C53.957 20.9806 53.957 20.9801 53.957 20.9796C53.957 20.9791 53.957 20.9786 53.957 20.978C53.957 20.9775 53.957 20.977 53.957 20.9765C53.957 20.976 53.957 20.9755 53.957 20.975C53.957 20.9744 53.957 20.9739 53.957 20.9734C53.957 20.9729 53.957 20.9724 53.957 20.9719C53.957 20.9714 53.957 20.9709 53.957 20.9704C53.957 20.9698 53.957 20.9693 53.957 20.9688C53.957 20.9683 53.957 20.9678 53.957 20.9673C53.957 20.9668 53.957 20.9663 53.957 20.9657C53.957 20.9652 53.957 20.9647 53.957 20.9642C53.957 20.9637 53.957 20.9632 53.957 20.9627C53.957 20.9622 53.957 20.9617 53.957 20.9612C53.957 20.9606 53.957 20.9601 53.957 20.9596C53.957 20.9591 53.957 20.9586 53.957 20.9581C53.957 20.9576 53.957 20.9571 53.957 20.9566C53.957 20.956 53.957 20.9555 53.957 20.955C53.957 20.9545 53.957 20.954 53.957 20.9535C53.957 20.953 53.957 20.9525 53.957 20.952C53.957 20.9515 53.957 20.951 53.957 20.9504C53.957 20.9499 53.957 20.9494 53.957 20.9489C53.957 20.9484 53.957 20.9479 53.957 20.9474C53.957 20.9469 53.957 20.9464 53.957 20.9459C53.957 20.9454 53.957 20.9449 53.957 20.9443C53.957 20.9438 53.957 20.9433 53.957 20.9428C53.957 20.9423 53.957 20.9418 53.957 20.9413C53.957 20.9408 53.957 20.9403 53.957 20.9398C53.957 20.9393 53.957 20.9388 53.957 20.9383C53.957 20.9378 53.957 20.9372 53.957 20.9367C53.957 20.9362 53.957 20.9357 53.957 20.9352C53.957 20.9347 53.957 20.9342 53.957 20.9337C53.957 20.9332 53.957 20.9327 53.957 20.9322C53.957 20.9317 53.957 20.9312 53.957 20.9307C53.957 20.9302 53.957 20.9297 53.957 20.9291C53.957 20.9286 53.957 20.9281 53.957 20.9276C53.957 20.9271 53.957 20.9266 53.957 20.9261C53.957 20.9256 53.957 20.9251 53.957 20.9246C53.957 20.9241 53.957 20.9236 53.957 20.9231C53.957 20.9226 53.957 20.9221 53.957 20.9216C53.957 20.9211 53.957 20.9206 53.957 20.9201C53.957 20.9196 53.957 20.9191 53.957 20.9186C53.957 20.9181 53.957 20.9175 53.957 20.917C53.957 20.9165 53.957 20.916 53.957 20.9155C53.957 20.915 53.957 20.9145 53.957 20.914C53.957 20.9135 53.957 20.913 53.957 20.9125C53.957 20.912 53.957 20.9115 53.957 20.911C53.957 20.9105 53.957 20.91 53.957 20.9095C53.957 20.909 53.957 20.9085 53.957 20.908C53.957 20.9075 53.957 20.907 53.957 20.9065C53.957 20.906 53.957 20.9055 53.957 20.905C53.957 20.9045 53.957 20.904 53.957 20.9035C53.957 20.903 53.957 20.9025 53.957 20.902C53.957 20.9015 53.957 20.901 53.957 20.9005C53.957 20.9 53.957 20.8995 53.957 20.899C53.957 20.8985 53.957 20.898 53.957 20.8975C53.957 20.897 53.957 20.8965 53.957 20.896H49.957H45.957C45.957 20.8965 45.957 20.897 45.957 20.8975C45.957 20.898 45.957 20.8985 45.957 20.899C45.957 20.8995 45.957 20.9 45.957 20.9005C45.957 20.901 45.957 20.9015 45.957 20.902C45.957 20.9025 45.957 20.903 45.957 20.9035C45.957 20.904 45.957 20.9045 45.957 20.905C45.957 20.9055 45.957 20.906 45.957 20.9065C45.957 20.907 45.957 20.9075 45.957 20.908C45.957 20.9085 45.957 20.909 45.957 20.9095C45.957 20.91 45.957 20.9105 45.957 20.911C45.957 20.9115 45.957 20.912 45.957 20.9125C45.957 20.913 45.957 20.9135 45.957 20.914C45.957 20.9145 45.957 20.915 45.957 20.9155C45.957 20.916 45.957 20.9165 45.957 20.917C45.957 20.9175 45.957 20.9181 45.957 20.9186C45.957 20.9191 45.957 20.9196 45.957 20.9201C45.957 20.9206 45.957 20.9211 45.957 20.9216C45.957 20.9221 45.957 20.9226 45.957 20.9231C45.957 20.9236 45.957 20.9241 45.957 20.9246C45.957 20.9251 45.957 20.9256 45.957 20.9261C45.957 20.9266 45.957 20.9271 45.957 20.9276C45.957 20.9281 45.957 20.9286 45.957 20.9291C45.957 20.9297 45.957 20.9302 45.957 20.9307C45.957 20.9312 45.957 20.9317 45.957 20.9322C45.957 20.9327 45.957 20.9332 45.957 20.9337C45.957 20.9342 45.957 20.9347 45.957 20.9352C45.957 20.9357 45.957 20.9362 45.957 20.9367C45.957 20.9372 45.957 20.9378 45.957 20.9383C45.957 20.9388 45.957 20.9393 45.957 20.9398C45.957 20.9403 45.957 20.9408 45.957 20.9413C45.957 20.9418 45.957 20.9423 45.957 20.9428C45.957 20.9433 45.957 20.9438 45.957 20.9443C45.957 20.9449 45.957 20.9454 45.957 20.9459C45.957 20.9464 45.957 20.9469 45.957 20.9474C45.957 20.9479 45.957 20.9484 45.957 20.9489C45.957 20.9494 45.957 20.9499 45.957 20.9504C45.957 20.951 45.957 20.9515 45.957 20.952C45.957 20.9525 45.957 20.953 45.957 20.9535C45.957 20.954 45.957 20.9545 45.957 20.955C45.957 20.9555 45.957 20.956 45.957 20.9566C45.957 20.9571 45.957 20.9576 45.957 20.9581C45.957 20.9586 45.957 20.9591 45.957 20.9596C45.957 20.9601 45.957 20.9606 45.957 20.9612C45.957 20.9617 45.957 20.9622 45.957 20.9627C45.957 20.9632 45.957 20.9637 45.957 20.9642C45.957 20.9647 45.957 20.9652 45.957 20.9657C45.957 20.9663 45.957 20.9668 45.957 20.9673C45.957 20.9678 45.957 20.9683 45.957 20.9688C45.957 20.9693 45.957 20.9698 45.957 20.9704C45.957 20.9709 45.957 20.9714 45.957 20.9719C45.957 20.9724 45.957 20.9729 45.957 20.9734C45.957 20.9739 45.957 20.9744 45.957 20.975C45.957 20.9755 45.957 20.976 45.957 20.9765C45.957 20.977 45.957 20.9775 45.957 20.978C45.957 20.9786 45.957 20.9791 45.957 20.9796C45.957 20.9801 45.957 20.9806 45.957 20.9811C45.957 20.9816 45.957 20.9821 45.957 20.9827C45.957 20.9832 45.957 20.9837 45.957 20.9842C45.957 20.9847 45.957 20.9852 45.957 20.9857C45.957 20.9863 45.957 20.9868 45.957 20.9873C45.957 20.9878 45.957 20.9883 45.957 20.9888C45.957 20.9893 45.957 20.9899 45.957 20.9904C45.957 20.9909 45.957 20.9914 45.957 20.9919C45.957 20.9924 45.957 20.993 45.957 20.9935C45.957 20.994 45.957 20.9945 45.957 20.995C45.957 20.9955 45.957 20.9961 45.957 20.9966C45.957 20.9971 45.957 20.9976 45.957 20.9981C45.957 20.9986 45.957 20.9991 45.957 20.9997C45.957 21.0002 45.957 21.0007 45.957 21.0012C45.957 21.0017 45.957 21.0023 45.957 21.0028C45.957 21.0033 45.957 21.0038 45.957 21.0043C45.957 21.0048 45.957 21.0054 45.957 21.0059C45.957 21.0064 45.957 21.0069 45.957 21.0074C45.957 21.0079 45.957 21.0085 45.957 21.009C45.957 21.0095 45.957 21.01 45.957 21.0105C45.957 21.0111 45.957 21.0116 45.957 21.0121C45.957 21.0126 45.957 21.0131 45.957 21.0136C45.957 21.0142 45.957 21.0147 45.957 21.0152C45.957 21.0157 45.957 21.0162 45.957 21.0168C45.957 21.0173 45.957 21.0178 45.957 21.0183C45.957 21.0188 45.957 21.0194 45.957 21.0199C45.957 21.0204 45.957 21.0209 45.957 21.0214C45.957 21.022 45.957 21.0225 45.957 21.023C45.957 21.0235 45.957 21.024 45.957 21.0246C45.957 21.0251 45.957 21.0256 45.957 21.0261C45.957 21.0266 45.957 21.0272 45.957 21.0277C45.957 21.0282 45.957 21.0287 45.957 21.0292C45.957 21.0298 45.957 21.0303 45.957 21.0308C45.957 21.0313 45.957 21.0319 45.957 21.0324C45.957 21.0329 45.957 21.0334 45.957 21.0339C45.957 21.0345 45.957 21.035 45.957 21.0355C45.957 21.036 45.957 21.0365 45.957 21.0371C45.957 21.0376 45.957 21.0381 45.957 21.0386C45.957 21.0392 45.957 21.0397 45.957 21.0402C45.957 21.0407 45.957 21.0413 45.957 21.0418C45.957 21.0423 45.957 21.0428 45.957 21.0433C45.957 21.0439 45.957 21.0444 45.957 21.0449C45.957 21.0454 45.957 21.046 45.957 21.0465C45.957 21.047 45.957 21.0475 45.957 21.0481C45.957 21.0486 45.957 21.0491 45.957 21.0496C45.957 21.0502 45.957 21.0507 45.957 21.0512C45.957 21.0517 45.957 21.0523 45.957 21.0528C45.957 21.0533 45.957 21.0538 45.957 21.0544C45.957 21.0549 45.957 21.0554 45.957 21.0559C45.957 21.0565 45.957 21.057 45.957 21.0575C45.957 21.058 45.957 21.0586 45.957 21.0591C45.957 21.0596 45.957 21.0601 45.957 21.0607C45.957 21.0612 45.957 21.0617 45.957 21.0622C45.957 21.0628 45.957 21.0633 45.957 21.0638C45.957 21.0644 45.957 21.0649 45.957 21.0654C45.957 21.0659 45.957 21.0665 45.957 21.067C45.957 21.0675 45.957 21.068 45.957 21.0686C45.957 21.0691 45.957 21.0696 45.957 21.0701C45.957 21.0707 45.957 21.0712 45.957 21.0717C45.957 21.0723 45.957 21.0728 45.957 21.0733C45.957 21.0738 45.957 21.0744 45.957 21.0749C45.957 21.0754 45.957 21.076 45.957 21.0765C45.957 21.077 45.957 21.0775 45.957 21.0781C45.957 21.0786 45.957 21.0791 45.957 21.0797C45.957 21.0802 45.957 21.0807 45.957 21.0812C45.957 21.0818 45.957 21.0823 45.957 21.0828C45.957 21.0834 45.957 21.0839 45.957 21.0844C45.957 21.085 45.957 21.0855 45.957 21.086C45.957 21.0865 45.957 21.0871 45.957 21.0876C45.957 21.0881 45.957 21.0887 45.957 21.0892C45.957 21.0897 45.957 21.0903 45.957 21.0908C45.957 21.0913 45.957 21.0918 45.957 21.0924C45.957 21.0929 45.957 21.0934 45.957 21.094C45.957 21.0945 45.957 21.095 45.957 21.0956C45.957 21.0961 45.957 21.0966 45.957 21.0972C45.957 21.0977 45.957 21.0982 45.957 21.0988C45.957 21.0993 45.957 21.0998 45.957 21.1004C45.957 21.1009 45.957 21.1014 45.957 21.102C45.957 21.1025 45.957 21.103 45.957 21.1035C45.957 21.1041 45.957 21.1046 45.957 21.1051C45.957 21.1057 45.957 21.1062 45.957 21.1067C45.957 21.1073 45.957 21.1078 45.957 21.1083C45.957 21.1089 45.957 21.1094 45.957 21.1099C45.957 21.1105 45.957 21.111 45.957 21.1115C45.957 21.1121 45.957 21.1126 45.957 21.1132C45.957 21.1137 45.957 21.1142 45.957 21.1148C45.957 21.1153 45.957 21.1158 45.957 21.1164C45.957 21.1169 45.957 21.1174 45.957 21.118C45.957 21.1185 45.957 21.119 45.957 21.1196C45.957 21.1201 45.957 21.1206 45.957 21.1212C45.957 21.1217 45.957 21.1222 45.957 21.1228C45.957 21.1233 45.957 21.1239 45.957 21.1244C45.957 21.1249 45.957 21.1255 45.957 21.126C45.957 21.1265 45.957 21.1271 45.957 21.1276C45.957 21.1281 45.957 21.1287 45.957 21.1292C45.957 21.1297 45.957 21.1303 45.957 21.1308C45.957 21.1314 45.957 21.1319 45.957 21.1324C45.957 21.133 45.957 21.1335 45.957 21.134C45.957 21.1346 45.957 21.1351 45.957 21.1357C45.957 21.1362 45.957 21.1367 45.957 21.1373C45.957 21.1378 45.957 21.1383 45.957 21.1389C45.957 21.1394 45.957 21.14 45.957 21.1405C45.957 21.141 45.957 21.1416 45.957 21.1421C45.957 21.1427 45.957 21.1432 45.957 21.1437C45.957 21.1443 45.957 21.1448 45.957 21.1453C45.957 21.1459 45.957 21.1464 45.957 21.147C45.957 21.1475 45.957 21.148 45.957 21.1486C45.957 21.1491 45.957 21.1497 45.957 21.1502C45.957 21.1507 45.957 21.1513 45.957 21.1518C45.957 21.1524 45.957 21.1529 45.957 21.1534C45.957 21.154 45.957 21.1545 45.957 21.1551C45.957 21.1556 45.957 21.1561 45.957 21.1567C45.957 21.1572 45.957 21.1578 45.957 21.1583C45.957 21.1588 45.957 21.1594 45.957 21.1599C45.957 21.1605 45.957 21.161 45.957 21.1616C45.957 21.1621 45.957 21.1626 45.957 21.1632C45.957 21.1637 45.957 21.1643 45.957 21.1648C45.957 21.1653 45.957 21.1659 45.957 21.1664C45.957 21.167 45.957 21.1675 45.957 21.1681C45.957 21.1686 45.957 21.1691 45.957 21.1697C45.957 21.1702 45.957 21.1708 45.957 21.1713C45.957 21.1719 45.957 21.1724 45.957 21.1729C45.957 21.1735 45.957 21.174 45.957 21.1746C45.957 21.1751 45.957 21.1757 45.957 21.1762C45.957 21.1768 45.957 21.1773 45.957 21.1778C45.957 21.1784 45.957 21.1789 45.957 21.1795C45.957 21.18 45.957 21.1806 45.957 21.1811C45.957 21.1816 45.957 21.1822 45.957 21.1827C45.957 21.1833 45.957 21.1838 45.957 21.1844C45.957 21.1849 45.957 21.1855 45.957 21.186C45.957 21.1866 45.957 21.1871 45.957 21.1876C45.957 21.1882 45.957 21.1887 45.957 21.1893C45.957 21.1898 45.957 21.1904 45.957 21.1909C45.957 21.1915 45.957 21.192 45.957 21.1926C45.957 21.1931 45.957 21.1936 45.957 21.1942C45.957 21.1947 45.957 21.1953 45.957 21.1958C45.957 21.1964 45.957 21.1969 45.957 21.1975C45.957 21.198 45.957 21.1986 45.957 21.1991C45.957 21.1997 45.957 21.2002 45.957 21.2008C45.957 21.2013 45.957 21.2019 45.957 21.2024C45.957 21.2029 45.957 21.2035 45.957 21.204C45.957 21.2046 45.957 21.2051 45.957 21.2057C45.957 21.2062 45.957 21.2068 45.957 21.2073C45.957 21.2079 45.957 21.2084 45.957 21.209C45.957 21.2095 45.957 21.2101 45.957 21.2106C45.957 21.2112 45.957 21.2117 45.957 21.2123C45.957 21.2128 45.957 21.2134 45.957 21.2139C45.957 21.2145 45.957 21.215 45.957 21.2156C45.957 21.2161 45.957 21.2167 45.957 21.2172C45.957 21.2178 45.957 21.2183 45.957 21.2189C45.957 21.2194 45.957 21.22 45.957 21.2205C45.957 21.2211 45.957 21.2216 45.957 21.2222C45.957 21.2227 45.957 21.2233 45.957 21.2238C45.957 21.2244 45.957 21.2249 45.957 21.2255C45.957 21.226 45.957 21.2266 45.957 21.2271C45.957 21.2277 45.957 21.2282 45.957 21.2288C45.957 21.2293 45.957 21.2299 45.957 21.2304C45.957 21.231 45.957 21.2315 45.957 21.2321C45.957 21.2326 45.957 21.2332 45.957 21.2337C45.957 21.2343 45.957 21.2348 45.957 21.2354C45.957 21.236 45.957 21.2365 45.957 21.2371C45.957 21.2376 45.957 21.2382 45.957 21.2387C45.957 21.2393 45.957 21.2398 45.957 21.2404C45.957 21.2409 45.957 21.2415 45.957 21.242C45.957 21.2426 45.957 21.2431 45.957 21.2437C45.957 21.2443 45.957 21.2448 45.957 21.2454C45.957 21.2459 45.957 21.2465 45.957 21.247C45.957 21.2476 45.957 21.2481 45.957 21.2487C45.957 21.2492 45.957 21.2498 45.957 21.2503C45.957 21.2509 45.957 21.2515 45.957 21.252C45.957 21.2526 45.957 21.2531 45.957 21.2537C45.957 21.2542 45.957 21.2548 45.957 21.2553C45.957 21.2559 45.957 21.2565 45.957 21.257C45.957 21.2576 45.957 21.2581 45.957 21.2587C45.957 21.2592 45.957 21.2598 45.957 21.2603C45.957 21.2609 45.957 21.2615 45.957 21.262C45.957 21.2626 45.957 21.2631 45.957 21.2637C45.957 21.2642 45.957 21.2648 45.957 21.2654C45.957 21.2659 45.957 21.2665 45.957 21.267C45.957 21.2676 45.957 21.2681 45.957 21.2687C45.957 21.2693 45.957 21.2698 45.957 21.2704C45.957 21.2709 45.957 21.2715 45.957 21.272C45.957 21.2726 45.957 21.2732 45.957 21.2737C45.957 21.2743 45.957 21.2748 45.957 21.2754C45.957 21.2759 45.957 21.2765 45.957 21.2771C45.957 21.2776 45.957 21.2782 45.957 21.2787C45.957 21.2793 45.957 21.2799 45.957 21.2804C45.957 21.281 45.957 21.2815 45.957 21.2821C45.957 21.2827 45.957 21.2832 45.957 21.2838C45.957 21.2843 45.957 21.2849 45.957 21.2855C45.957 21.286 45.957 21.2866 45.957 21.2871C45.957 21.2877 45.957 21.2883 45.957 21.2888C45.957 21.2894 45.957 21.2899 45.957 21.2905C45.957 21.2911 45.957 21.2916 45.957 21.2922C45.957 21.2927 45.957 21.2933 45.957 21.2939C45.957 21.2944 45.957 21.295 45.957 21.2955C45.957 21.2961 45.957 21.2967 45.957 21.2972C45.957 21.2978 45.957 21.2984 45.957 21.2989C45.957 21.2995 45.957 21.3 45.957 21.3006C45.957 21.3012 45.957 21.3017 45.957 21.3023C45.957 21.3028 45.957 21.3034 45.957 21.304C45.957 21.3045 45.957 21.3051 45.957 21.3057C45.957 21.3062 45.957 21.3068 45.957 21.3074C45.957 21.3079 45.957 21.3085 45.957 21.309C45.957 21.3096 45.957 21.3102 45.957 21.3107C45.957 21.3113 45.957 21.3119 45.957 21.3124C45.957 21.313 45.957 21.3135 45.957 21.3141C45.957 21.3147 45.957 21.3152 45.957 21.3158C45.957 21.3164 45.957 21.3169 45.957 21.3175C45.957 21.3181 45.957 21.3186 45.957 21.3192C45.957 21.3198 45.957 21.3203 45.957 21.3209C45.957 21.3214 45.957 21.322 45.957 21.3226C45.957 21.3231 45.957 21.3237 45.957 21.3243C45.957 21.3248 45.957 21.3254 45.957 21.326C45.957 21.3265 45.957 21.3271 45.957 21.3277C45.957 21.3282 45.957 21.3288 45.957 21.3294C45.957 21.3299 45.957 21.3305 45.957 21.3311C45.957 21.3316 45.957 21.3322 45.957 21.3328C45.957 21.3333 45.957 21.3339 45.957 21.3345C45.957 21.335 45.957 21.3356 45.957 21.3362C45.957 21.3367 45.957 21.3373 45.957 21.3379C45.957 21.3384 45.957 21.339 45.957 21.3396C45.957 21.3401 45.957 21.3407 45.957 21.3413C45.957 21.3418 45.957 21.3424 45.957 21.343C45.957 21.3435 45.957 21.3441 45.957 21.3447C45.957 21.3453 45.957 21.3458 45.957 21.3464C45.957 21.347 45.957 21.3475 45.957 21.3481C45.957 21.3487 45.957 21.3492 45.957 21.3498C45.957 21.3504 45.957 21.3509 45.957 21.3515C45.957 21.3521 45.957 21.3526 45.957 21.3532C45.957 21.3538 45.957 21.3544 45.957 21.3549C45.957 21.3555 45.957 21.3561 45.957 21.3566C45.957 21.3572 45.957 21.3578 45.957 21.3583C45.957 21.3589 45.957 21.3595 45.957 21.3601C45.957 21.3606 45.957 21.3612 45.957 21.3618C45.957 21.3623 45.957 21.3629 45.957 21.3635C45.957 21.3641 45.957 21.3646 45.957 21.3652C45.957 21.3658 45.957 21.3663 45.957 21.3669C45.957 21.3675 45.957 21.3681 45.957 21.3686C45.957 21.3692 45.957 21.3698 45.957 21.3703C45.957 21.3709 45.957 21.3715 45.957 21.3721C45.957 21.3726 45.957 21.3732 45.957 21.3738C45.957 21.3743 45.957 21.3749 45.957 21.3755C45.957 21.3761 45.957 21.3766 45.957 21.3772C45.957 21.3778 45.957 21.3784 45.957 21.3789C45.957 21.3795 45.957 21.3801 45.957 21.3807C45.957 21.3812 45.957 21.3818 45.957 21.3824C45.957 21.3829 45.957 21.3835 45.957 21.3841C45.957 21.3847 45.957 21.3852 45.957 21.3858C45.957 21.3864 45.957 21.387 45.957 21.3875C45.957 21.3881 45.957 21.3887 45.957 21.3893C45.957 21.3898 45.957 21.3904 45.957 21.391C45.957 21.3916 45.957 21.3921 45.957 21.3927C45.957 21.3933 45.957 21.3939 45.957 21.3944C45.957 21.395 45.957 21.3956 45.957 21.3962C45.957 21.3967 45.957 21.3973 45.957 21.3979C45.957 21.3985 45.957 21.399 45.957 21.3996C45.957 21.4002 45.957 21.4008 45.957 21.4014C45.957 21.4019 45.957 21.4025 45.957 21.4031C45.957 21.4037 45.957 21.4042 45.957 21.4048C45.957 21.4054 45.957 21.406 45.957 21.4065C45.957 21.4071 45.957 21.4077 45.957 21.4083C45.957 21.4089 45.957 21.4094 45.957 21.41C45.957 21.4106 45.957 21.4112 45.957 21.4117C45.957 21.4123 45.957 21.4129 45.957 21.4135C45.957 21.4141 45.957 21.4146 45.957 21.4152C45.957 21.4158 45.957 21.4164 45.957 21.4169C45.957 21.4175 45.957 21.4181 45.957 21.4187C45.957 21.4193 45.957 21.4198 45.957 21.4204C45.957 21.421 45.957 21.4216 45.957 21.4222C45.957 21.4227 45.957 21.4233 45.957 21.4239C45.957 21.4245 45.957 21.4251 45.957 21.4256C45.957 21.4262 45.957 21.4268 45.957 21.4274C45.957 21.428 45.957 21.4285 45.957 21.4291C45.957 21.4297 45.957 21.4303 45.957 21.4309C45.957 21.4314 45.957 21.432 45.957 21.4326C45.957 21.4332 45.957 21.4338 45.957 21.4343C45.957 21.4349 45.957 21.4355 45.957 21.4361C45.957 21.4367 45.957 21.4372 45.957 21.4378C45.957 21.4384 45.957 21.439 45.957 21.4396C45.957 21.4402 45.957 21.4407 45.957 21.4413C45.957 21.4419 45.957 21.4425 45.957 21.4431C45.957 21.4436 45.957 21.4442 45.957 21.4448C45.957 21.4454 45.957 21.446 45.957 21.4466C45.957 21.4471 45.957 21.4477 45.957 21.4483C45.957 21.4489 45.957 21.4495 45.957 21.4501C45.957 21.4506 45.957 21.4512 45.957 21.4518C45.957 21.4524 45.957 21.453 45.957 21.4536C45.957 21.4541 45.957 21.4547 45.957 21.4553C45.957 21.4559 45.957 21.4565 45.957 21.4571C45.957 21.4576 45.957 21.4582 45.957 21.4588C45.957 21.4594 45.957 21.46 45.957 21.4606C45.957 21.4612 45.957 21.4617 45.957 21.4623C45.957 21.4629 45.957 21.4635 45.957 21.4641C45.957 21.4647 45.957 21.4652 45.957 21.4658C45.957 21.4664 45.957 21.467 45.957 21.4676C45.957 21.4682 45.957 21.4688 45.957 21.4693C45.957 21.4699 45.957 21.4705 45.957 21.4711C45.957 21.4717 45.957 21.4723 45.957 21.4729C45.957 21.4734 45.957 21.474 45.957 21.4746C45.957 21.4752 45.957 21.4758 45.957 21.4764C45.957 21.477 45.957 21.4776 45.957 21.4781C45.957 21.4787 45.957 21.4793 45.957 21.4799C45.957 21.4805 45.957 21.4811 45.957 21.4817C45.957 21.4823 45.957 21.4828 45.957 21.4834C45.957 21.484 45.957 21.4846 45.957 21.4852C45.957 21.4858 45.957 21.4864 45.957 21.487C45.957 21.4876 45.957 21.4881 45.957 21.4887C45.957 21.4893 45.957 21.4899 45.957 21.4905C45.957 21.4911 45.957 21.4917 45.957 21.4923C45.957 21.4929 45.957 21.4934 45.957 21.494C45.957 21.4946 45.957 21.4952 45.957 21.4958C45.957 21.4964 45.957 21.497 45.957 21.4976C45.957 21.4982 45.957 21.4987 45.957 21.4993C45.957 21.4999 45.957 21.5005 45.957 21.5011C45.957 21.5017 45.957 21.5023 45.957 21.5029C45.957 21.5035 45.957 21.5041 45.957 21.5047C45.957 21.5052 45.957 21.5058 45.957 21.5064C45.957 21.507 45.957 21.5076 45.957 21.5082C45.957 21.5088 45.957 21.5094 45.957 21.51C45.957 21.5106 45.957 21.5112 45.957 21.5117C45.957 21.5123 45.957 21.5129 45.957 21.5135C45.957 21.5141 45.957 21.5147 45.957 21.5153C45.957 21.5159 45.957 21.5165 45.957 21.5171C45.957 21.5177 45.957 21.5183 45.957 21.5189C45.957 21.5194 45.957 21.52 45.957 21.5206C45.957 21.5212 45.957 21.5218 45.957 21.5224C45.957 21.523 45.957 21.5236 45.957 21.5242C45.957 21.5248 45.957 21.5254 45.957 21.526C45.957 21.5266 45.957 21.5272 45.957 21.5278C45.957 21.5283 45.957 21.5289 45.957 21.5295C45.957 21.5301 45.957 21.5307 45.957 21.5313C45.957 21.5319 45.957 21.5325 45.957 21.5331C45.957 21.5337 45.957 21.5343 45.957 21.5349C45.957 21.5355 45.957 21.5361 45.957 21.5367C45.957 21.5373 45.957 21.5379 45.957 21.5385C45.957 21.5391 45.957 21.5396 45.957 21.5402C45.957 21.5408 45.957 21.5414 45.957 21.542C45.957 21.5426 45.957 21.5432 45.957 21.5438C45.957 21.5444 45.957 21.545 45.957 21.5456C45.957 21.5462 45.957 21.5468 45.957 21.5474C45.957 21.548 45.957 21.5486 45.957 21.5492C45.957 21.5498 45.957 21.5504 45.957 21.551C45.957 21.5516 45.957 21.5522 45.957 21.5528C45.957 21.5534 45.957 21.554 45.957 21.5546C45.957 21.5552 45.957 21.5558 45.957 21.5564C45.957 21.557 45.957 21.5576 45.957 21.5582C45.957 21.5588 45.957 21.5593 45.957 21.5599C45.957 21.5605 45.957 21.5611 45.957 21.5617C45.957 21.5623 45.957 21.5629 45.957 21.5635C45.957 21.5641 45.957 21.5647 45.957 21.5653C45.957 21.5659 45.957 21.5665 45.957 21.5671C45.957 21.5677 45.957 21.5683 45.957 21.5689C45.957 21.5695 45.957 21.5701 45.957 21.5707C45.957 21.5713 45.957 21.5719 45.957 21.5725C45.957 21.5731 45.957 21.5737 45.957 21.5743C45.957 21.5749 45.957 21.5755 45.957 21.5761C45.957 21.5767 45.957 21.5773 45.957 21.5779C45.957 21.5785 45.957 21.5791 45.957 21.5797C45.957 21.5803 45.957 21.5809 45.957 21.5815C45.957 21.5821 45.957 21.5827 45.957 21.5833C45.957 21.584 45.957 21.5846 45.957 21.5852C45.957 21.5858 45.957 21.5864 45.957 21.587C45.957 21.5876 45.957 21.5882 45.957 21.5888C45.957 21.5894 45.957 21.59 45.957 21.5906C45.957 21.5912 45.957 21.5918 45.957 21.5924C45.957 21.593 45.957 21.5936 45.957 21.5942C45.957 21.5948 45.957 21.5954 45.957 21.596C45.957 21.5966 45.957 21.5972 45.957 21.5978C45.957 21.5984 45.957 21.599 45.957 21.5996C45.957 21.6002 45.957 21.6008 45.957 21.6014C45.957 21.602 45.957 21.6026 45.957 21.6032C45.957 21.6038 45.957 21.6045 45.957 21.6051C45.957 21.6057 45.957 21.6063 45.957 21.6069C45.957 21.6075 45.957 21.6081 45.957 21.6087C45.957 21.6093 45.957 21.6099 45.957 21.6105C45.957 21.6111 45.957 21.6117 45.957 21.6123C45.957 21.6129 45.957 21.6135 45.957 21.6141C45.957 21.6147 45.957 21.6153 45.957 21.616C45.957 21.6166 45.957 21.6172 45.957 21.6178C45.957 21.6184 45.957 21.619 45.957 21.6196C45.957 21.6202 45.957 21.6208 45.957 21.6214C45.957 21.622 45.957 21.6226 45.957 21.6232C45.957 21.6238 45.957 21.6244 45.957 21.625C45.957 21.6257 45.957 21.6263 45.957 21.6269C45.957 21.6275 45.957 21.6281 45.957 21.6287C45.957 21.6293 45.957 21.6299 45.957 21.6305C45.957 21.6311 45.957 21.6317 45.957 21.6323C45.957 21.6329 45.957 21.6336 45.957 21.6342C45.957 21.6348 45.957 21.6354 45.957 21.636C45.957 21.6366 45.957 21.6372 45.957 21.6378C45.957 21.6384 45.957 21.639 45.957 21.6396C45.957 21.6403 45.957 21.6409 45.957 21.6415C45.957 21.6421 45.957 21.6427 45.957 21.6433C45.957 21.6439 45.957 21.6445 45.957 21.6451C45.957 21.6457 45.957 21.6464 45.957 21.647C45.957 21.6476 45.957 21.6482 45.957 21.6488C45.957 21.6494 45.957 21.65 45.957 21.6506C45.957 21.6512 45.957 21.6518 45.957 21.6525C45.957 21.6531 45.957 21.6537 45.957 21.6543C45.957 21.6549 45.957 21.6555 45.957 21.6561C45.957 21.6567 45.957 21.6573 45.957 21.658C45.957 21.6586 45.957 21.6592 45.957 21.6598C45.957 21.6604 45.957 21.661 45.957 21.6616C45.957 21.6622 45.957 21.6628 45.957 21.6635C45.957 21.6641 45.957 21.6647 45.957 21.6653C45.957 21.6659 45.957 21.6665 45.957 21.6671C45.957 21.6678 45.957 21.6684 45.957 21.669C45.957 21.6696 45.957 21.6702 45.957 21.6708C45.957 21.6714 45.957 21.672 45.957 21.6727C45.957 21.6733 45.957 21.6739 45.957 21.6745C45.957 21.6751 45.957 21.6757 45.957 21.6763C45.957 21.677 45.957 21.6776 45.957 21.6782C45.957 21.6788 45.957 21.6794 45.957 21.68C45.957 21.6806 45.957 21.6813 45.957 21.6819C45.957 21.6825 45.957 21.6831 45.957 21.6837C45.957 21.6843 45.957 21.6849 45.957 21.6856C45.957 21.6862 45.957 21.6868 45.957 21.6874C45.957 21.688 45.957 21.6886 45.957 21.6893C45.957 21.6899 45.957 21.6905 45.957 21.6911C45.957 21.6917 45.957 21.6923 45.957 21.6929C45.957 21.6936 45.957 21.6942 45.957 21.6948C45.957 21.6954 45.957 21.696 45.957 21.6966C45.957 21.6973 45.957 21.6979 45.957 21.6985C45.957 21.6991 45.957 21.6997 45.957 21.7003C45.957 21.701 45.957 21.7016 45.957 21.7022C45.957 21.7028 45.957 21.7034 45.957 21.7041C45.957 21.7047 45.957 21.7053 45.957 21.7059C45.957 21.7065 45.957 21.7071 45.957 21.7078C45.957 21.7084 45.957 21.709 45.957 21.7096C45.957 21.7102 45.957 21.7108 45.957 21.7115C45.957 21.7121 45.957 21.7127 45.957 21.7133C45.957 21.7139 45.957 21.7146 45.957 21.7152C45.957 21.7158 45.957 21.7164 45.957 21.717C45.957 21.7177 45.957 21.7183 45.957 21.7189C45.957 21.7195 45.957 21.7201 45.957 21.7208C45.957 21.7214 45.957 21.722 45.957 21.7226C45.957 21.7232 45.957 21.7239 45.957 21.7245C45.957 21.7251 45.957 21.7257 45.957 21.7263C45.957 21.727 45.957 21.7276 45.957 21.7282C45.957 21.7288 45.957 21.7294 45.957 21.7301C45.957 21.7307 45.957 21.7313 45.957 21.7319C45.957 21.7326 45.957 21.7332 45.957 21.7338C45.957 21.7344 45.957 21.735 45.957 21.7357C45.957 21.7363 45.957 21.7369 45.957 21.7375C45.957 21.7381 45.957 21.7388 45.957 21.7394C45.957 21.74 45.957 21.7406 45.957 21.7413C45.957 21.7419 45.957 21.7425 45.957 21.7431C45.957 21.7438 45.957 21.7444 45.957 21.745C45.957 21.7456 45.957 21.7462 45.957 21.7469C45.957 21.7475 45.957 21.7481 45.957 21.7487C45.957 21.7494 45.957 21.75 45.957 21.7506C45.957 21.7512 45.957 21.7519 45.957 21.7525C45.957 21.7531 45.957 21.7537 45.957 21.7544C45.957 21.755 45.957 21.7556 45.957 21.7562C45.957 21.7568 45.957 21.7575 45.957 21.7581C45.957 21.7587 45.957 21.7593 45.957 21.76H49.957ZM49.957 20.896H53.957C53.957 18.4778 53.0658 16.1034 50.8825 14.5024L48.517 17.728L46.1516 20.9536C46.1327 20.9397 46.0943 20.9076 46.0512 20.8549C46.0077 20.8018 45.9758 20.7477 45.9556 20.7032C45.9143 20.6125 45.957 20.6433 45.957 20.896H49.957ZM48.517 17.728L50.9883 14.5827C48.9849 13.0086 46.2801 12.672 43.909 12.672V16.672V20.672C44.8012 20.672 45.4117 20.746 45.7995 20.8349C46.1995 20.9266 46.2038 20.9974 46.0457 20.8732L48.517 17.728ZM43.909 16.672V12.672H32.677V16.672V20.672H43.909V16.672ZM32.677 16.672L28.7608 15.8574L26.2648 27.8574L30.181 28.672L34.0972 29.4865L36.5932 17.4865L32.677 16.672ZM24.901 53.248V57.248H37.381V53.248V49.248H24.901V53.248ZM37.381 53.248V57.248C40.3165 57.248 43.1812 56.6369 45.4692 54.8937L43.045 51.712L40.6208 48.5302C40.2208 48.8351 39.3095 49.248 37.381 49.248V53.248ZM43.045 51.712L45.3977 54.9469C47.865 53.1525 49.1963 50.4217 49.8347 47.4693L45.925 46.624L42.0154 45.7786C41.6297 47.5622 41.041 48.2234 40.6923 48.477L43.045 51.712ZM45.925 46.624L49.8473 47.4084C49.9497 46.8968 50.021 46.3396 50.021 45.76H46.021H42.021C42.021 45.7226 42.0233 45.7102 42.0215 45.7262C42.0197 45.742 42.0148 45.779 42.0027 45.8395L45.925 46.624ZM46.021 45.76L49.9433 46.5444C50.0457 46.0328 50.117 45.4756 50.117 44.896H46.117H42.117C42.117 44.8587 42.1193 44.8462 42.1175 44.8623C42.1157 44.878 42.1108 44.9151 42.0987 44.9755L46.021 45.76ZM46.117 44.896H50.117C50.117 42.3856 49.1677 39.9312 46.8471 38.3358L44.581 41.632L42.3149 44.9281C42.3001 44.918 42.2615 44.8882 42.216 44.8351C42.17 44.7815 42.1356 44.7257 42.1137 44.6792C42.0692 44.5846 42.117 44.6195 42.117 44.896H46.117ZM44.581 41.632L46.8471 38.3358C44.8069 36.9331 42.1687 36.576 39.685 36.576V40.576V44.576C40.611 44.576 41.2824 44.6501 41.7457 44.7501C42.2169 44.8517 42.3527 44.9541 42.3149 44.9281L44.581 41.632ZM39.685 40.576V36.576H27.589V40.576V44.576H39.685V40.576ZM27.589 40.576L23.6761 39.746L20.9881 52.418L24.901 53.248L28.814 54.078L31.502 41.406L27.589 40.576Z" fill="#282828" mask="url(#path-1-outside-1_113_54)"/>
<defs>
<linearGradient id="paint0_linear_113_54" x1="37.0671" y1="-3.17603" x2="37.0671" y2="67.824" gradientUnits="userSpaceOnUse">
<stop stop-color="#F400E9"/>
<stop offset="1" stop-color="#8000F0"/>
</linearGradient>
</defs>
</svg>
