<svg width="66" height="72" viewBox="0 0 66 72" fill="none" xmlns="http://www.w3.org/2000/svg">
<mask id="path-1-outside-1_113_63" maskUnits="userSpaceOnUse" x="-0.25" y="-0.216003" width="66" height="72" fill="black">
<rect fill="white" x="-0.25" y="-0.216003" width="66" height="72"/>
<path d="M24.9901 67.744C20.8301 67.744 16.9581 67.424 13.3741 66.784C9.79013 66.08 6.84613 65.12 4.54212 63.904L7.71013 49.024C10.3341 50.368 13.3101 51.456 16.6381 52.288C19.9661 53.12 23.1661 53.536 26.2381 53.536C29.4381 53.536 31.9021 53.28 33.6301 52.768C35.3581 52.192 36.4461 50.944 36.8941 49.024C36.9581 48.768 36.9901 48.448 36.9901 48.064C36.9901 46.464 35.9981 45.28 34.0141 44.512C32.0301 43.744 29.0861 42.688 25.1821 41.344C20.8301 39.808 17.5341 37.952 15.2941 35.776C13.0541 33.536 11.9341 30.656 11.9341 27.136C11.9341 26.432 11.9661 25.728 12.0301 25.024C12.0941 24.256 12.2221 23.456 12.4141 22.624C13.6941 16.544 16.7021 11.936 21.4381 8.79999C26.2381 5.59999 33.1501 3.99999 42.1741 3.99999C45.5661 3.99999 48.9901 4.28799 52.4461 4.86399C55.9661 5.43999 58.7501 6.07999 60.7981 6.784L57.6301 21.76C54.8781 20.544 52.1901 19.68 49.5661 19.168C46.9421 18.656 44.4141 18.4 41.9821 18.4C39.1661 18.4 36.7021 18.624 34.5901 19.072C32.5421 19.52 31.2941 20.672 30.8461 22.528C30.7821 22.72 30.7501 23.008 30.7501 23.392C30.7501 24.608 31.5501 25.536 33.1501 26.176C34.7501 26.816 37.4061 27.712 41.1181 28.864C46.6861 30.528 50.5581 32.576 52.7341 35.008C54.9101 37.44 55.9981 40.32 55.9981 43.648C55.9981 44.48 55.9341 45.344 55.8061 46.24C55.6781 47.136 55.5181 48.064 55.3261 49.024C54.5581 52.736 53.0541 56 50.8141 58.816C48.6381 61.632 45.4701 63.84 41.3101 65.44C37.1501 66.976 31.7101 67.744 24.9901 67.744Z"/>
</mask>
<path d="M24.9901 67.744C20.8301 67.744 16.9581 67.424 13.3741 66.784C9.79013 66.08 6.84613 65.12 4.54212 63.904L7.71013 49.024C10.3341 50.368 13.3101 51.456 16.6381 52.288C19.9661 53.12 23.1661 53.536 26.2381 53.536C29.4381 53.536 31.9021 53.28 33.6301 52.768C35.3581 52.192 36.4461 50.944 36.8941 49.024C36.9581 48.768 36.9901 48.448 36.9901 48.064C36.9901 46.464 35.9981 45.28 34.0141 44.512C32.0301 43.744 29.0861 42.688 25.1821 41.344C20.8301 39.808 17.5341 37.952 15.2941 35.776C13.0541 33.536 11.9341 30.656 11.9341 27.136C11.9341 26.432 11.9661 25.728 12.0301 25.024C12.0941 24.256 12.2221 23.456 12.4141 22.624C13.6941 16.544 16.7021 11.936 21.4381 8.79999C26.2381 5.59999 33.1501 3.99999 42.1741 3.99999C45.5661 3.99999 48.9901 4.28799 52.4461 4.86399C55.9661 5.43999 58.7501 6.07999 60.7981 6.784L57.6301 21.76C54.8781 20.544 52.1901 19.68 49.5661 19.168C46.9421 18.656 44.4141 18.4 41.9821 18.4C39.1661 18.4 36.7021 18.624 34.5901 19.072C32.5421 19.52 31.2941 20.672 30.8461 22.528C30.7821 22.72 30.7501 23.008 30.7501 23.392C30.7501 24.608 31.5501 25.536 33.1501 26.176C34.7501 26.816 37.4061 27.712 41.1181 28.864C46.6861 30.528 50.5581 32.576 52.7341 35.008C54.9101 37.44 55.9981 40.32 55.9981 43.648C55.9981 44.48 55.9341 45.344 55.8061 46.24C55.6781 47.136 55.5181 48.064 55.3261 49.024C54.5581 52.736 53.0541 56 50.8141 58.816C48.6381 61.632 45.4701 63.84 41.3101 65.44C37.1501 66.976 31.7101 67.744 24.9901 67.744Z" fill="url(#paint0_linear_113_63)"/>
<path d="M13.3741 66.784L12.6031 70.709L12.637 70.7156L12.671 70.7217L13.3741 66.784ZM4.54212 63.904L0.62981 63.0711L-8.2016e-05 66.0296L2.67509 67.4415L4.54212 63.904ZM7.71012 49.024L9.53363 45.4638L4.88533 43.083L3.79781 48.1911L7.71012 49.024ZM16.6381 52.288L17.6083 48.4074V48.4074L16.6381 52.288ZM33.6301 52.768L34.7665 56.6032L34.8311 56.584L34.895 56.5627L33.6301 52.768ZM36.8941 49.024L33.0136 48.0538L33.0059 48.0844L32.9988 48.1151L36.8941 49.024ZM34.0141 44.512L32.5701 48.2423L32.5702 48.2423L34.0141 44.512ZM25.1821 41.344L23.8508 45.116L23.8654 45.1211L23.8801 45.1261L25.1821 41.344ZM15.2941 35.776L12.4657 38.6044L12.4862 38.6249L12.507 38.6451L15.2941 35.776ZM12.0301 25.024L16.0137 25.3861L16.0151 25.3712L16.0163 25.3562L12.0301 25.024ZM12.4141 22.624L16.3117 23.5234L16.3204 23.4858L16.3283 23.448L12.4141 22.624ZM21.4381 8.8L23.6465 12.1351L23.6569 12.1282L21.4381 8.8ZM52.4461 4.86399L51.7885 8.80959L51.8002 8.81149L52.4461 4.86399ZM60.7981 6.784L64.7115 7.61183L65.4436 4.15115L62.0985 3.00125L60.7981 6.784ZM57.6301 21.76L56.0135 25.4187L60.5232 27.4114L61.5435 22.5878L57.6301 21.76ZM49.5661 19.168L48.8001 23.094V23.094L49.5661 19.168ZM34.5901 19.072L33.7601 15.1591L33.7477 15.1617L33.7353 15.1644L34.5901 19.072ZM30.8461 22.528L34.6409 23.7929L34.6946 23.6317L34.7345 23.4666L30.8461 22.528ZM33.1501 26.176L31.6646 29.8899L31.6646 29.8899L33.1501 26.176ZM41.1181 28.864L39.9325 32.6843L39.9526 32.6905L39.9728 32.6965L41.1181 28.864ZM52.7341 35.008L55.7151 32.3408V32.3408L52.7341 35.008ZM55.8061 46.24L51.8463 45.6743L51.8463 45.6743L55.8061 46.24ZM55.3261 49.024L59.2432 49.8344L59.2458 49.8214L59.2484 49.8085L55.3261 49.024ZM50.8141 58.816L47.6837 56.3259L47.6662 56.3479L47.649 56.3702L50.8141 58.816ZM41.3101 65.44L42.6956 69.1924L42.7209 69.1831L42.746 69.1734L41.3101 65.44ZM24.9901 67.744V63.744C21.0333 63.744 17.3991 63.4395 14.0773 62.8463L13.3741 66.784L12.671 70.7217C16.5171 71.4085 20.627 71.744 24.9901 71.744V67.744ZM13.3741 66.784L14.1451 62.859C10.8025 62.2024 8.26128 61.344 6.40916 60.3665L4.54212 63.904L2.67509 67.4415C5.43097 68.896 8.77773 69.9576 12.6031 70.709L13.3741 66.784ZM4.54212 63.904L8.45444 64.7369L11.6224 49.8569L7.71012 49.024L3.79781 48.1911L0.62981 63.0711L4.54212 63.904ZM7.71012 49.024L5.88662 52.5842C8.8218 54.0876 12.0911 55.2743 15.668 56.1686L16.6381 52.288L17.6083 48.4074C14.5291 47.6376 11.8465 46.6484 9.53363 45.4638L7.71012 49.024ZM16.6381 52.288L15.668 56.1686C19.2769 57.0708 22.8036 57.536 26.2381 57.536V53.536V49.536C23.5286 49.536 20.6553 49.1692 17.6083 48.4074L16.6381 52.288ZM26.2381 53.536V57.536C29.5742 57.536 32.4896 57.2778 34.7665 56.6032L33.6301 52.768L32.4938 48.9328C31.3147 49.2822 29.3021 49.536 26.2381 49.536V53.536ZM33.6301 52.768L34.895 56.5627C38.0674 55.5053 40.057 53.0723 40.7895 49.9329L36.8941 49.024L32.9988 48.1151C32.895 48.5596 32.7667 48.726 32.727 48.7715C32.698 48.8047 32.622 48.8877 32.3652 48.9733L33.6301 52.768ZM36.8941 49.024L40.7747 49.9942C40.945 49.3129 40.9901 48.6411 40.9901 48.064H36.9901H32.9901C32.9901 48.1047 32.9893 48.136 32.9883 48.1584C32.9872 48.1809 32.9861 48.1924 32.986 48.194C32.9858 48.1957 32.9868 48.1846 32.9906 48.1624C32.9942 48.1403 33.0012 48.1033 33.0136 48.0538L36.8941 49.024ZM36.9901 48.064H40.9901C40.9901 46.3612 40.4346 44.7468 39.3122 43.4071C38.2493 42.1385 36.8538 41.322 35.4581 40.7817L34.0141 44.512L32.5702 48.2423C32.8526 48.3516 33.0264 48.4478 33.1223 48.5107C33.2158 48.572 33.2181 48.5903 33.18 48.5449C33.1372 48.4937 33.0787 48.4038 33.0362 48.2846C32.9944 48.1673 32.9901 48.0836 32.9901 48.064H36.9901ZM34.0141 44.512L35.4581 40.7817C33.4019 39.9858 30.4005 38.9101 26.4842 37.5618L25.1821 41.344L23.8801 45.1261C27.7718 46.4659 30.6584 47.5022 32.5701 48.2423L34.0141 44.512ZM25.1821 41.344L26.5134 37.572C22.4678 36.1442 19.7574 34.5351 18.0813 32.9069L15.2941 35.776L12.507 38.6451C15.3108 41.3689 19.1925 43.4718 23.8508 45.116L25.1821 41.344ZM15.2941 35.776L18.1226 32.9476C16.7194 31.5444 15.9341 29.7243 15.9341 27.136H11.9341H7.93413C7.93413 31.5877 9.38888 35.5276 12.4657 38.6044L15.2941 35.776ZM11.9341 27.136H15.9341C15.9341 26.5534 15.9606 25.9702 16.0137 25.3861L12.0301 25.024L8.04655 24.6618C7.97165 25.4858 7.93413 26.3106 7.93413 27.136H11.9341ZM12.0301 25.024L16.0163 25.3562C16.0628 24.7983 16.1582 24.1884 16.3117 23.5234L12.4141 22.624L8.51656 21.7246C8.28602 22.7236 8.12545 23.7137 8.04394 24.6918L12.0301 25.024ZM12.4141 22.624L16.3283 23.448C17.4141 18.2907 19.8733 14.6336 23.6465 12.1351L21.4381 8.8L19.2297 5.46487C13.5309 9.23843 9.97417 14.7973 8.49993 21.8L12.4141 22.624ZM21.4381 8.8L23.6569 12.1282C27.5255 9.54914 33.5287 7.99999 42.1741 7.99999V3.99999V-7.62939e-06C32.7716 -7.62939e-06 24.9507 1.65084 19.2193 5.47179L21.4381 8.8ZM42.1741 3.99999V7.99999C45.3387 7.99999 48.5427 8.2686 51.7885 8.80957L52.4461 4.86399L53.1037 0.918419C49.4375 0.307388 45.7936 -7.62939e-06 42.1741 -7.62939e-06V3.99999ZM52.4461 4.86399L51.8002 8.81149C55.2204 9.37117 57.7548 9.96759 59.4978 10.5667L60.7981 6.784L62.0985 3.00125C59.7454 2.19241 56.7118 1.50882 53.0921 0.916496L52.4461 4.86399ZM60.7981 6.784L56.8847 5.95616L53.7167 20.9322L57.6301 21.76L61.5435 22.5878L64.7115 7.61183L60.7981 6.784ZM57.6301 21.76L59.2468 18.1012C56.2555 16.7795 53.2826 15.8177 50.3322 15.242L49.5661 19.168L48.8001 23.094C51.0977 23.5423 53.5007 24.3085 56.0135 25.4187L57.6301 21.76ZM49.5661 19.168L50.3322 15.242C47.4804 14.6856 44.6952 14.4 41.9821 14.4V18.4V22.4C44.1331 22.4 46.4039 22.6264 48.8001 23.094L49.5661 19.168ZM41.9821 18.4V14.4C38.9664 14.4 36.2129 14.6388 33.7601 15.1591L34.5901 19.072L35.4201 22.9849C37.1914 22.6092 39.3659 22.4 41.9821 22.4V18.4ZM34.5901 19.072L33.7353 15.1644C32.1785 15.5049 30.6609 16.1735 29.405 17.3328C28.1298 18.5099 27.3434 19.9918 26.9578 21.5894L30.8461 22.528L34.7345 23.4666C34.7689 23.324 34.8039 23.2549 34.8164 23.2326C34.8272 23.2135 34.8306 23.2118 34.8312 23.2112C34.8335 23.2092 34.864 23.1806 34.9509 23.1384C35.0415 23.0945 35.198 23.0336 35.4449 22.9796L34.5901 19.072ZM30.8461 22.528L27.0514 21.2631C26.7789 22.0804 26.7501 22.8913 26.7501 23.392H30.7501H34.7501C34.7501 23.3033 34.7542 23.2888 34.7497 23.3297C34.7471 23.3525 34.7408 23.4027 34.7264 23.4745C34.7124 23.5447 34.6868 23.6551 34.6409 23.7929L30.8461 22.528ZM30.7501 23.392H26.7501C26.7501 26.9268 29.2996 28.9439 31.6646 29.8899L33.1501 26.176L34.6357 22.4621C34.2036 22.2893 34.2257 22.2095 34.3798 22.3882C34.467 22.4894 34.5707 22.6453 34.6477 22.8516C34.7249 23.0584 34.7501 23.2488 34.7501 23.392H30.7501ZM33.1501 26.176L31.6646 29.8899C33.4245 30.5939 36.2125 31.5298 39.9325 32.6843L41.1181 28.864L42.3037 25.0437C38.5997 23.8942 36.0757 23.0381 34.6357 22.4621L33.1501 26.176ZM41.1181 28.864L39.9728 32.6965C45.3116 34.292 48.3209 36.0744 49.7532 37.6752L52.7341 35.008L55.7151 32.3408C52.7954 29.0776 48.0606 26.764 42.2635 25.0315L41.1181 28.864ZM52.7341 35.008L49.7532 37.6752C51.2587 39.3579 51.9981 41.2826 51.9981 43.648H55.9981H59.9981C59.9981 39.3573 58.5615 35.5221 55.7151 32.3408L52.7341 35.008ZM55.9981 43.648H51.9981C51.9981 44.2751 51.9499 44.9495 51.8463 45.6743L55.8061 46.24L59.7659 46.8057C59.9184 45.7385 59.9981 44.6849 59.9981 43.648H55.9981ZM55.8061 46.24L51.8463 45.6743C51.7296 46.4914 51.5825 47.3463 51.4038 48.2395L55.3261 49.024L59.2484 49.8085C59.4538 48.7817 59.6267 47.7806 59.7659 46.8057L55.8061 46.24ZM55.3261 49.024L51.4091 48.2136C50.7611 51.3455 49.5126 54.0267 47.6837 56.3259L50.8141 58.816L53.9445 61.3061C56.5956 57.9733 58.3552 54.1265 59.2432 49.8344L55.3261 49.024ZM50.8141 58.816L47.649 56.3702C46.0209 58.4772 43.5219 60.3036 39.8742 61.7066L41.3101 65.44L42.746 69.1734C47.4183 67.3764 51.2554 64.7868 53.9793 61.2618L50.8141 58.816ZM41.3101 65.44L39.9246 61.6876C36.3751 62.9982 31.4559 63.744 24.9901 63.744V67.744V71.744C31.9644 71.744 37.9251 70.9538 42.6956 69.1924L41.3101 65.44Z" fill="#282828" mask="url(#path-1-outside-1_113_63)"/>
<defs>
<linearGradient id="paint0_linear_113_63" x1="32.75" y1="-2.216" x2="32.75" y2="68.784" gradientUnits="userSpaceOnUse">
<stop stop-color="#B7FFF9"/>
<stop offset="0.475962" stop-color="#FFBCFE"/>
<stop offset="1" stop-color="#A9FFD7"/>
</linearGradient>
</defs>
</svg>
